<svg width="266" height="20" viewBox="0 0 266 20" fill="none" xmlns="http://www.w3.org/2000/svg">
<mask id="mask0_4585_5898" style="mask-type:alpha" maskUnits="userSpaceOnUse" x="0" y="0" width="266" height="20">
<rect width="266" height="20" fill="#D9D9D9"/>
</mask>
<g mask="url(#mask0_4585_5898)">
<path fill-rule="evenodd" clip-rule="evenodd" d="M-10.4062 10C-10.4062 9.44772 -9.95853 9 -9.40625 9H9.65625C10.2085 9 10.6562 9.44772 10.6562 10C10.6562 10.5523 10.2085 11 9.65625 11H-9.40625C-9.95853 11 -10.4062 10.5523 -10.4062 10ZM27.7188 10C27.7188 9.44772 28.1665 9 28.7188 9H47.7812C48.3335 9 48.7812 9.44772 48.7812 10C48.7812 10.5523 48.3335 11 47.7812 11H28.7188C28.1665 11 27.7188 10.5523 27.7188 10ZM65.8438 10C65.8438 9.44772 66.2915 9 66.8438 9H85.9062C86.4585 9 86.9062 9.44772 86.9062 10C86.9062 10.5523 86.4585 11 85.9062 11H66.8438C66.2915 11 65.8438 10.5523 65.8438 10ZM103.969 10C103.969 9.44772 104.416 9 104.969 9H124.031C124.584 9 125.031 9.44772 125.031 10C125.031 10.5523 124.584 11 124.031 11H104.969C104.416 11 103.969 10.5523 103.969 10ZM142.094 10C142.094 9.44772 142.541 9 143.094 9H162.156C162.709 9 163.156 9.44772 163.156 10C163.156 10.5523 162.709 11 162.156 11H143.094C142.541 11 142.094 10.5523 142.094 10ZM180.219 10C180.219 9.44772 180.666 9 181.219 9H200.281C200.834 9 201.281 9.44772 201.281 10C201.281 10.5523 200.834 11 200.281 11H181.219C180.666 11 180.219 10.5523 180.219 10ZM218.344 10C218.344 9.44772 218.791 9 219.344 9H238.406C238.959 9 239.406 9.44772 239.406 10C239.406 10.5523 238.959 11 238.406 11H219.344C218.791 11 218.344 10.5523 218.344 10Z" fill="#E0E0E0"/>
<path d="M255.5 10C255.5 9.44772 255.948 9 256.5 9H275.562C276.115 9 276.562 9.44772 276.562 10C276.562 10.5523 276.115 11 275.562 11H256.5C255.948 11 255.5 10.5523 255.5 10Z" fill="#E0E0E0"/>
</g>
</svg>
