<svg width="390" height="20" viewBox="0 0 390 20" fill="none" xmlns="http://www.w3.org/2000/svg">
<path d="M390 0H0V20C0.818939 20 1.63787 19.6876 2.2627 19.0628L12.7372 8.58826C12.832 8.49349 12.9196 8.39426 13 8.29124C13.0804 8.39426 13.1679 8.49349 13.2627 8.58826L23.7372 19.0628C24.9869 20.3125 27.013 20.3125 28.2627 19.0628L38.7372 8.58826C38.832 8.49349 38.9196 8.39426 39 8.29124C39.0804 8.39426 39.1679 8.49349 39.2627 8.58826L49.7372 19.0628C50.9869 20.3125 53.013 20.3125 54.2627 19.0628L64.7372 8.58826C64.832 8.49349 64.9196 8.39426 65 8.29124C65.0804 8.39426 65.1679 8.49349 65.2627 8.58826L75.7372 19.0628C76.9869 20.3125 79.013 20.3125 80.2627 19.0628L90.7372 8.58826C90.832 8.49349 90.9196 8.39426 91 8.29124C91.0804 8.39426 91.1679 8.49349 91.2627 8.58826L101.737 19.0628C102.987 20.3125 105.013 20.3125 106.263 19.0628L116.737 8.58826C116.832 8.49349 116.92 8.39426 117 8.29124C117.08 8.39426 117.168 8.49349 117.263 8.58826L127.737 19.0628C128.987 20.3125 131.013 20.3125 132.263 19.0628L142.737 8.58826C142.832 8.49349 142.92 8.39426 143 8.29124C143.08 8.39426 143.168 8.49349 143.263 8.58826L153.737 19.0628C154.987 20.3125 157.013 20.3125 158.263 19.0628L168.737 8.58826C168.832 8.49349 168.92 8.39426 169 8.29124C169.08 8.39426 169.168 8.49349 169.263 8.58826L179.737 19.0628C180.987 20.3125 183.013 20.3125 184.263 19.0628L194.737 8.58826C194.832 8.49349 194.92 8.39426 195 8.29124C195.08 8.39426 195.168 8.49349 195.263 8.58826L205.737 19.0628C206.987 20.3125 209.013 20.3125 210.263 19.0628L220.737 8.58826C220.832 8.49349 220.92 8.39426 221 8.29124C221.08 8.39426 221.168 8.49349 221.263 8.58826L231.737 19.0628C232.987 20.3125 235.013 20.3125 236.263 19.0628L246.737 8.58826C246.832 8.49348 246.92 8.39425 247 8.29122C247.08 8.39425 247.168 8.49348 247.263 8.58826L257.737 19.0628C258.987 20.3125 261.013 20.3125 262.263 19.0628L272.737 8.58826C272.832 8.49348 272.92 8.39425 273 8.29122C273.08 8.39425 273.168 8.49348 273.263 8.58826L283.737 19.0628C284.987 20.3125 287.013 20.3125 288.263 19.0628L298.737 8.58826C298.832 8.49348 298.92 8.39425 299 8.29122C299.08 8.39425 299.168 8.49348 299.263 8.58826L309.737 19.0628C310.987 20.3125 313.013 20.3125 314.263 19.0628L324.737 8.58826C324.832 8.49348 324.92 8.39425 325 8.29122C325.08 8.39425 325.168 8.49348 325.263 8.58826L335.737 19.0628C336.987 20.3125 339.013 20.3125 340.263 19.0628L350.737 8.58826C350.832 8.49348 350.92 8.39425 351 8.29122C351.08 8.39425 351.168 8.49348 351.263 8.58826L361.737 19.0628C362.987 20.3125 365.013 20.3125 366.263 19.0628L376.737 8.58826C376.832 8.49348 376.92 8.39425 377 8.29122C377.08 8.39425 377.168 8.49348 377.263 8.58826L387.737 19.0628C388.362 19.6876 389.181 20 390 20V0Z" fill="white"/>
</svg>
