<?xml version="1.0" encoding="utf-8"?>
<!-- Generator: Adobe Illustrator 27.3.1, SVG Export Plug-In . SVG Version: 6.00 Build 0)  -->
<svg version="1.1" id="圖層_1" xmlns="http://www.w3.org/2000/svg" xmlns:xlink="http://www.w3.org/1999/xlink" x="0px" y="0px"
	 viewBox="0 0 31 30" style="enable-background:new 0 0 31 30;" xml:space="preserve">
<style type="text/css">
	.st0{clip-path:url(#SVGID_00000028307195840203343320000010810998372025488516_);}
	.st1{fill:#FFFFFF;}
</style>
<g>
	<defs>
		<rect id="SVGID_1_" x="5.8" y="8.8" width="19.5" height="12.5"/>
	</defs>
	<clipPath id="SVGID_00000047775083484849286400000014510035997892386225_">
		<use xlink:href="#SVGID_1_"  style="overflow:visible;"/>
	</clipPath>
	<g style="clip-path:url(#SVGID_00000047775083484849286400000014510035997892386225_);">
		<path d="M23.5,8.8h-16c-0.1,0-0.1,0-0.2,0c-0.1,0-0.1,0-0.2,0c-0.1,0-0.2,0-0.4,0c-0.1,0-0.2,0.1-0.3,0.1C6.3,9,6.2,9,6.1,9.1
			C6,9.2,6,9.3,5.9,9.4C5.9,9.5,5.8,9.7,5.8,9.8c0,0.1,0,0.2,0,0.4c0,0.1,0,0.1,0,0.2c0,0.1,0,0.1,0,0.2v9c0,0.1,0,0.1,0,0.2
			c0,0.1,0,0.1,0,0.2c0,0.1,0,0.2,0,0.4c0,0.1,0.1,0.2,0.1,0.3C6,20.7,6,20.8,6.1,20.9C6.2,21,6.3,21,6.4,21.1
			c0.1,0.1,0.2,0.1,0.3,0.1c0.1,0,0.2,0,0.4,0c0.1,0,0.1,0,0.2,0c0.1,0,0.1,0,0.2,0h16c0.1,0,0.1,0,0.2,0c0.1,0,0.1,0,0.2,0
			c0.1,0,0.2,0,0.4,0c0.1,0,0.2-0.1,0.3-0.1c0.1-0.1,0.2-0.1,0.3-0.2c0.1-0.1,0.2-0.2,0.2-0.3c0.1-0.1,0.1-0.2,0.1-0.3
			c0-0.1,0-0.2,0-0.4c0-0.1,0-0.1,0-0.2c0-0.1,0-0.1,0-0.2v-9c0-0.1,0-0.1,0-0.2c0-0.1,0-0.1,0-0.2c0-0.1,0-0.2,0-0.4
			c0-0.1-0.1-0.2-0.1-0.3C25,9.3,25,9.2,24.9,9.1C24.8,9,24.7,9,24.6,8.9c-0.1-0.1-0.2-0.1-0.3-0.1c-0.1,0-0.2,0-0.4,0
			c-0.1,0-0.1,0-0.2,0C23.6,8.8,23.6,8.8,23.5,8.8z"/>
		<path class="st1" d="M23.5,9.2l0.2,0c0.1,0,0.1,0,0.2,0c0.1,0,0.2,0,0.3,0c0.1,0,0.2,0,0.2,0.1c0.1,0,0.1,0.1,0.2,0.1
			c0.1,0.1,0.1,0.1,0.1,0.2c0,0.1,0.1,0.1,0.1,0.2c0,0.1,0,0.2,0,0.3c0,0.1,0,0.1,0,0.2c0,0.1,0,0.1,0,0.2v9c0,0.1,0,0.1,0,0.2
			c0,0.1,0,0.1,0,0.2c0,0.1,0,0.2,0,0.3c0,0.1,0,0.2-0.1,0.2c0,0.1-0.1,0.1-0.1,0.2c-0.1,0.1-0.1,0.1-0.2,0.1
			c-0.1,0-0.1,0.1-0.2,0.1c-0.1,0-0.2,0-0.3,0c-0.1,0-0.1,0-0.2,0c-0.1,0-0.1,0-0.2,0h-16c0,0,0,0,0,0c-0.1,0-0.1,0-0.2,0
			c-0.1,0-0.1,0-0.2,0c-0.1,0-0.2,0-0.3,0c-0.1,0-0.2,0-0.2-0.1c-0.1,0-0.1-0.1-0.2-0.1c-0.1-0.1-0.1-0.1-0.1-0.2
			c0-0.1-0.1-0.1-0.1-0.2c0-0.1,0-0.2,0-0.3c0-0.1,0-0.1,0-0.2l0-0.2l0,0v-9l0,0l0-0.2c0-0.1,0-0.1,0-0.2c0-0.1,0-0.2,0-0.3
			c0-0.1,0-0.2,0.1-0.2c0-0.1,0.1-0.1,0.1-0.2c0.1-0.1,0.1-0.1,0.2-0.1c0.1,0,0.1-0.1,0.2-0.1c0.1,0,0.2,0,0.3,0c0.1,0,0.1,0,0.2,0
			l0.2,0H23.5z"/>
		<path d="M11.1,13c0.2-0.2,0.3-0.5,0.2-0.8c-0.2,0-0.5,0.2-0.7,0.4c-0.2,0.2-0.3,0.5-0.3,0.7C10.6,13.3,10.9,13.2,11.1,13z"/>
		<path d="M11.3,13.4c-0.4,0-0.7,0.2-0.9,0.2c-0.2,0-0.5-0.2-0.8-0.2c-0.4,0-0.8,0.2-1,0.6c-0.4,0.7-0.1,1.8,0.3,2.4
			C9.1,16.7,9.4,17,9.7,17c0.3,0,0.4-0.2,0.8-0.2c0.4,0,0.5,0.2,0.8,0.2c0.3,0,0.5-0.3,0.7-0.6c0.2-0.3,0.3-0.7,0.3-0.7
			c0,0-0.6-0.2-0.6-1c0-0.6,0.5-0.9,0.5-0.9C11.9,13.4,11.5,13.4,11.3,13.4z"/>
		<path d="M14.8,12.5c0.9,0,1.5,0.6,1.5,1.5c0,0.9-0.6,1.5-1.5,1.5h-1V17h-0.7v-4.5H14.8L14.8,12.5z M13.8,14.9h0.8
			c0.6,0,0.9-0.3,0.9-0.9c0-0.6-0.3-0.9-0.9-0.9h-0.8V14.9z"/>
		<path d="M16.4,16.1c0-0.6,0.4-0.9,1.2-1l0.9-0.1v-0.3c0-0.4-0.2-0.6-0.7-0.6c-0.4,0-0.6,0.2-0.7,0.5h-0.6c0-0.6,0.5-1,1.3-1
			c0.8,0,1.3,0.4,1.3,1.1V17h-0.6v-0.5h0c-0.2,0.4-0.6,0.6-1,0.6C16.9,17,16.4,16.6,16.4,16.1z M18.5,15.8v-0.3l-0.8,0
			c-0.4,0-0.6,0.2-0.6,0.5c0,0.3,0.2,0.5,0.6,0.5C18.2,16.5,18.5,16.2,18.5,15.8z"/>
		<path d="M19.8,18.2v-0.5c0,0,0.2,0,0.2,0c0.3,0,0.5-0.1,0.6-0.5c0,0,0.1-0.2,0.1-0.2l-1.2-3.3h0.7l0.8,2.6h0l0.8-2.6h0.7l-1.2,3.4
			c-0.3,0.8-0.6,1-1.3,1C20,18.2,19.9,18.2,19.8,18.2z"/>
	</g>
</g>
</svg>
