<svg width="30" height="25" viewBox="0 0 30 25" fill="none" xmlns="http://www.w3.org/2000/svg">
<path d="M3.91894 5.90134C5.30057 5.24097 6.84612 4.86629 8.49002 4.87097C14.3444 4.87097 19.0888 9.61534 19.0888 15.4697L19.0841 17.0761L16.7283 14.7203C15.8993 13.8914 14.5598 13.8914 13.7308 14.7203C12.9019 15.5493 12.9019 16.8888 13.7308 17.7178L19.7023 23.6892L19.721 23.708C20.55 24.5369 21.8895 24.5369 22.7185 23.708L28.7133 17.7131C29.5423 16.8841 29.5423 15.5446 28.7133 14.7157C27.8843 13.8867 26.5449 13.8867 25.7159 14.7157L23.3179 17.1136L23.3226 15.4697C23.3226 7.2736 16.6814 0.632415 8.48534 0.632415C6.1998 0.632414 4.03134 1.15228 2.0877 2.08429C1.02923 2.59011 0.58898 3.85465 1.09011 4.90844C1.59125 5.96222 2.86047 6.40715 3.91426 5.90602L3.91894 5.90134Z" fill="#BDBDBD"/>
</svg>
