<svg width="13" height="14" viewBox="0 0 13 14" fill="none" xmlns="http://www.w3.org/2000/svg">
<g clip-path="url(#clip0_6449_102077)">
<path d="M4.90625 0.65625C4.90625 0.292578 4.61367 0 4.25 0C3.88633 0 3.59375 0.292578 3.59375 0.65625V1.75H2.5C1.53477 1.75 0.75 2.53477 0.75 3.5V12.25C0.75 13.2152 1.53477 14 2.5 14H11.25C12.2152 14 13 13.2152 13 12.25V3.5C13 2.53477 12.2152 1.75 11.25 1.75H10.1562V0.65625C10.1562 0.292578 9.86367 0 9.5 0C9.13633 0 8.84375 0.292578 8.84375 0.65625V1.75H4.90625V0.65625ZM2.0625 5.25H11.6875V12.25C11.6875 12.4906 11.4906 12.6875 11.25 12.6875H2.5C2.25937 12.6875 2.0625 12.4906 2.0625 12.25V5.25Z" fill="#22798C"/>
</g>
<defs>
<clipPath id="clip0_6449_102077">
<rect width="12.25" height="14" fill="white" transform="translate(0.75)"/>
</clipPath>
</defs>
</svg>
