<svg width="60" height="60" viewBox="0 0 60 60" fill="none" xmlns="http://www.w3.org/2000/svg">
<path d="M55 32.5V30C55 20.5725 55 15.8575 52.07 12.93C49.1425 10 44.4275 10 35 10H25C15.5725 10 10.8575 10 7.93 12.93C5 15.8575 5 20.5725 5 30C5 39.4275 5 44.1425 7.93 47.07C10.8575 50 15.5725 50 25 50H32.5M25 40H15M5 25H55" stroke="#22798C" stroke-width="3.75" stroke-linecap="round"/>
<path d="M45 50C49.1421 50 52.5 46.6421 52.5 42.5C52.5 38.3579 49.1421 35 45 35C40.8579 35 37.5 38.3579 37.5 42.5C37.5 46.6421 40.8579 50 45 50Z" stroke="#22798C" stroke-width="3.75"/>
<path d="M51.25 48.75L53.75 51.25" stroke="#22798C" stroke-width="3.75" stroke-linecap="round"/>
</svg>
