<svg width="30" height="30" viewBox="0 0 30 30" fill="none" xmlns="http://www.w3.org/2000/svg">
<path d="M7.52063 9.47276C10.0125 10.1531 12.5063 9.51838 15 8.88276C17.7188 8.18994 20.4375 7.49682 23.1563 8.51182C23.6844 8.70901 24 9.23807 24 9.80182V19.4843C24 20.2312 23.2 20.7249 22.4781 20.5281C19.9875 19.8468 17.4938 20.4812 15 21.1156C12.2531 21.8093 9.53438 22.5031 6.84281 21.4874C6.31438 21.2906 6 20.7624 6 20.1968V10.5156C6 9.76838 6.80031 9.27588 7.52063 9.47276ZM14.9719 17.9999C16.3813 17.9999 17.5 16.6562 17.5 14.9718C17.5 13.3156 16.3813 11.9718 14.9719 11.9718C13.6188 11.9718 12.4719 13.3156 12.4719 14.9718C12.4719 16.6562 13.6188 17.9999 14.9719 17.9999ZM7.97188 19.9999H9.97188C9.97188 18.8968 9.10469 17.9999 7.97188 17.9999V19.9999ZM7.97188 11.4718V13.4718C9.10469 13.4718 9.97188 12.6031 9.97188 11.4718H7.97188ZM22 16.4718C20.8969 16.4718 20 17.3968 20 18.4999H22V16.4718ZM20 9.97182C20 11.1031 20.8969 11.9718 22 11.9718V9.97182H20Z" fill="black"/>
</svg>
