<svg width="40" height="26" viewBox="0 0 40 26" fill="none" xmlns="http://www.w3.org/2000/svg">
<path fill-rule="evenodd" clip-rule="evenodd" d="M27.4244 0.388672C24.5646 0.388672 21.9248 1.34193 19.835 2.95513C17.7818 1.45192 15.2154 0.535327 12.4656 0.535327C5.57287 0.535327 0 6.14486 0 13.001C0 19.8571 5.60953 25.4666 12.4656 25.4666C15.2154 25.4666 17.7818 24.55 19.835 23.0468C21.9615 24.66 24.5646 25.6132 27.4244 25.6132C34.3905 25.6132 40 19.967 40 13.0376C40 6.1082 34.3905 0.388672 27.4244 0.388672Z" fill="white"/>
<path fill-rule="evenodd" clip-rule="evenodd" d="M27.3878 2.00195C21.3016 2.00195 16.3521 6.95154 16.3521 13.0377C16.3521 19.1239 21.3016 24.0735 27.3878 24.0735C33.474 24.0735 38.4236 19.1239 38.4236 13.0377C38.4236 6.95154 33.474 2.00195 27.3878 2.00195ZM26.6545 20.3338C26.2146 20.4071 26.0313 20.4804 26.0313 20.4804C25.3346 20.6637 24.858 21.2137 24.528 21.9836C24.4181 22.2769 24.1247 22.3869 23.8681 22.2769H23.8314C23.6115 22.2036 23.4648 21.9836 23.5015 21.5803C23.5748 20.957 23.7214 20.2971 23.8314 19.7105C24.8947 15.0909 26.9845 12.8177 28.4877 11.7178C28.671 11.6078 28.781 11.4612 28.7444 11.3878C28.671 11.3145 28.2311 11.4612 27.7911 11.6811C26.5445 12.4511 24.0514 14.2843 23.0248 18.6106C22.9515 18.9405 22.8415 19.2339 22.7315 19.3072C22.4382 19.4538 22.1082 19.0505 21.8883 18.6106C20.9717 16.8874 20.7517 15.2375 21.3016 13.661C22.5849 9.99462 27.0578 7.79481 28.9643 6.95154C30.3209 6.36492 31.2741 5.8883 32.2274 5.11836C32.5207 4.86172 32.6674 4.75172 32.8873 4.82505C33.0707 4.86171 33.254 5.0817 33.2906 5.63165C33.5106 13.5877 30.9075 19.4538 26.6545 20.3338Z" fill="#00783F"/>
<path fill-rule="evenodd" clip-rule="evenodd" d="M15.5455 17.7302C14.5189 19.1234 13.2357 20.0033 11.7325 20.3333C11.2925 20.4066 11.1092 20.48 11.1092 20.48C10.4126 20.6633 9.93593 21.2132 9.60596 21.9832C9.49597 22.2765 9.20266 22.3865 8.94602 22.2765H8.90935C8.68937 22.2032 8.54272 21.9832 8.57938 21.5799C8.65271 20.9566 8.79936 20.2967 8.90935 19.71C9.9726 15.0904 12.0624 12.8173 13.5656 11.7174C13.749 11.6074 13.8589 11.4607 13.8223 11.3874C13.7489 11.3141 13.309 11.4607 12.869 11.6807C11.6225 12.4506 9.12933 14.2838 8.10275 18.6101C8.02942 18.9401 7.91943 19.2334 7.80944 19.3067C7.51613 19.4534 7.18617 19.0501 6.96619 18.6101C6.04959 16.8869 5.82961 15.2371 6.37956 13.6605C7.66279 9.99418 12.1358 7.79436 14.0423 6.9511C15.3988 6.36448 16.3521 5.88785 17.3053 5.11791C17.452 5.00792 17.5253 4.9346 17.6353 4.86127C17.9286 4.5313 18.2586 4.20132 18.6252 3.90801C16.8654 2.69811 14.7022 1.96484 12.4291 1.96484C6.3429 1.96484 1.39331 6.91443 1.39331 13.0006C1.39331 19.0868 6.3429 24.0363 12.4291 24.0363C14.7389 24.0363 16.8654 23.3031 18.6252 22.0932C17.342 20.9199 16.2787 19.4167 15.5455 17.7302Z" fill="#FFB548"/>
</svg>
