<svg width="101" height="100" viewBox="0 0 101 100" fill="none" xmlns="http://www.w3.org/2000/svg">
<path d="M67.1667 16.6753C76.2292 16.7253 81.1375 17.1295 84.3375 20.3295C88 23.992 88 29.8836 88 41.667V66.667C88 78.4545 88 84.3461 84.3375 88.0086C80.6792 91.667 74.7833 91.667 63 91.667H38C26.2167 91.667 20.3208 91.667 16.6625 88.0086C13 84.342 13 78.4545 13 66.667V41.667C13 29.8836 13 23.992 16.6625 20.3295C19.8625 17.1295 24.7708 16.7253 33.8333 16.6753" stroke="#BDBDBD" stroke-width="6.25"/>
<path d="M44.2503 58.3333H71.3337M29.667 58.3333H31.7503M29.667 43.75H31.7503M29.667 72.9167H31.7503M44.2503 43.75H71.3337M44.2503 72.9167H71.3337" stroke="#BDBDBD" stroke-width="6.25" stroke-linecap="round"/>
<path d="M33.833 14.5835C33.833 12.9259 34.4915 11.3362 35.6636 10.1641C36.8357 8.99198 38.4254 8.3335 40.083 8.3335H60.9163C62.5739 8.3335 64.1637 8.99198 65.3358 10.1641C66.5079 11.3362 67.1663 12.9259 67.1663 14.5835V18.7502C67.1663 20.4078 66.5079 21.9975 65.3358 23.1696C64.1637 24.3417 62.5739 25.0002 60.9163 25.0002H40.083C38.4254 25.0002 36.8357 24.3417 35.6636 23.1696C34.4915 21.9975 33.833 20.4078 33.833 18.7502V14.5835Z" stroke="#BDBDBD" stroke-width="6.25"/>
<path d="M7.10485 6.18544C5.27427 8.01602 5.27427 10.984 7.10486 12.8146L87.5382 93.248C89.3688 95.0785 92.3368 95.0785 94.1674 93.248C95.998 91.4174 95.998 88.4494 94.1674 86.6188L13.734 6.18544C11.9034 4.35485 8.93544 4.35485 7.10485 6.18544Z" fill="#BDBDBD" stroke="white" stroke-width="3.125"/>
</svg>
