<svg width="60" height="60" viewBox="0 0 60 60" fill="none" xmlns="http://www.w3.org/2000/svg">
<path d="M40 10.0049C45.4375 10.0349 48.3825 10.2774 50.3025 12.1974C52.5 14.3949 52.5 17.9299 52.5 24.9999V39.9999C52.5 47.0724 52.5 50.6074 50.3025 52.8049C48.1075 54.9999 44.57 54.9999 37.5 54.9999H22.5C15.43 54.9999 11.8925 54.9999 9.6975 52.8049C7.5 50.6049 7.5 47.0724 7.5 39.9999V24.9999C7.5 17.9299 7.5 14.3949 9.6975 12.1974C11.6175 10.2774 14.5625 10.0349 20 10.0049" stroke="#22798C" stroke-width="3.75"/>
<path d="M26.25 35H42.5M17.5 35H18.75M17.5 26.25H18.75M17.5 43.75H18.75M26.25 26.25H42.5M26.25 43.75H42.5" stroke="#22798C" stroke-width="3.75" stroke-linecap="round"/>
<path d="M20 8.75C20 7.75544 20.3951 6.80161 21.0983 6.09835C21.8016 5.39509 22.7554 5 23.75 5H36.25C37.2446 5 38.1984 5.39509 38.9017 6.09835C39.6049 6.80161 40 7.75544 40 8.75V11.25C40 12.2446 39.6049 13.1984 38.9017 13.9017C38.1984 14.6049 37.2446 15 36.25 15H23.75C22.7554 15 21.8016 14.6049 21.0983 13.9017C20.3951 13.1984 20 12.2446 20 11.25V8.75Z" stroke="#22798C" stroke-width="3.75"/>
</svg>
