<svg width="21" height="20" viewBox="0 0 21 20" fill="none" xmlns="http://www.w3.org/2000/svg">
<path d="M13.5833 3.33301C15.3958 3.34301 16.3775 3.42384 17.0175 4.06384C17.75 4.79634 17.75 5.97467 17.75 8.33134V13.3313C17.75 15.6888 17.75 16.8672 17.0175 17.5997C16.2858 18.3313 15.1067 18.3313 12.75 18.3313H7.75C5.39333 18.3313 4.21417 18.3313 3.4825 17.5997C2.75 16.8663 2.75 15.6888 2.75 13.3313V8.33134C2.75 5.97467 2.75 4.79634 3.4825 4.06384C4.1225 3.42384 5.10417 3.34301 6.91667 3.33301" stroke="#EB5757" stroke-width="1.25"/>
<path d="M6.91699 2.9165C6.91699 2.58498 7.04869 2.26704 7.28311 2.03262C7.51753 1.7982 7.83547 1.6665 8.16699 1.6665H12.3337C12.6652 1.6665 12.9831 1.7982 13.2175 2.03262C13.452 2.26704 13.5837 2.58498 13.5837 2.9165V3.74984C13.5837 4.08136 13.452 4.3993 13.2175 4.63372C12.9831 4.86814 12.6652 4.99984 12.3337 4.99984H8.16699C7.83547 4.99984 7.51753 4.86814 7.28311 4.63372C7.04869 4.3993 6.91699 4.08136 6.91699 3.74984V2.9165Z" stroke="#EB5757" stroke-width="1.25"/>
<path d="M12.3337 9.1665L8.16699 13.3332M8.16699 9.1665L12.3337 13.3332" stroke="#EB5757" stroke-width="1.25" stroke-linecap="round"/>
</svg>
