<svg width="151" height="151" viewBox="0 0 151 151" fill="none" xmlns="http://www.w3.org/2000/svg">
<path d="M25.5741 99.0117L36.1366 67.3305C40.9241 52.968 43.3179 45.7867 48.9804 44.4555C54.6429 43.1117 59.9991 48.468 70.6991 59.1742L91.8241 80.293C102.524 90.9992 107.88 96.3492 106.543 102.012C105.205 107.674 98.0241 110.074 83.6616 114.855L51.9804 125.418C34.6991 131.18 26.0554 134.062 21.4929 129.499C16.9304 124.937 19.8116 116.293 25.5741 99.0117Z" stroke="#FF9900" stroke-width="9.375" stroke-linecap="round"/>
<path d="M76.9683 115.161C76.9683 115.161 72.2308 100.905 72.2308 91.4734C72.2308 82.0359 76.9683 67.7734 76.9683 67.7734M50.9058 122.273C50.9058 122.273 46.9058 105.067 46.1683 93.8359C44.9496 75.2797 50.9058 46.4547 50.9058 46.4547M91.1871 63.0359L92.0808 58.5359C92.9933 53.9922 96.2683 50.2859 100.662 48.8234C102.821 48.103 104.751 46.8246 106.257 45.1179C107.763 43.4111 108.791 41.3367 109.237 39.1047L110.137 34.6047M110.312 83.3297L111.637 84.0984C115.743 86.4734 120.906 85.9484 124.456 82.8047C126.029 81.4083 127.969 80.4915 130.047 80.1626C132.125 79.8337 134.253 80.1064 136.181 80.9484L138 81.7484M61.7183 17.8672C60.6931 19.5435 60.262 21.5162 60.4944 23.4674C60.7268 25.4186 61.6093 27.2348 62.9996 28.6234L63.6058 29.2359C66.0683 31.6922 66.9746 35.2984 65.9683 38.6297" stroke="#FF9900" stroke-width="9.375" stroke-linecap="round"/>
<path d="M43.7991 25.1248C44.111 24.8138 44.4811 24.5672 44.8882 24.3992C45.2954 24.2311 45.7317 24.1449 46.1722 24.1455C46.6127 24.1461 47.0488 24.2334 47.4555 24.4025C47.8623 24.5716 48.2317 24.8192 48.5428 25.1311C48.8539 25.443 49.1005 25.8131 49.2685 26.2203C49.4365 26.6275 49.5227 27.0638 49.5222 27.5043C49.5216 27.9448 49.4342 28.3808 49.2651 28.7876C49.096 29.1943 48.8485 29.5638 48.5366 29.8748C47.9067 30.5031 47.053 30.8554 46.1634 30.8542C45.2738 30.853 44.421 30.4985 43.7928 29.8686C43.1646 29.2387 42.8123 28.3851 42.8135 27.4954C42.8147 26.6058 43.1692 25.7531 43.7991 25.1248ZM76.4803 45.2311C76.7918 44.9196 77.1616 44.6725 77.5685 44.504C77.9755 44.3354 78.4117 44.2486 78.8522 44.2486C79.2927 44.2486 79.7289 44.3354 80.1358 44.504C80.5428 44.6725 80.9126 44.9196 81.2241 45.2311C81.5355 45.5426 81.7826 45.9124 81.9512 46.3193C82.1198 46.7263 82.2065 47.1625 82.2065 47.603C82.2065 48.0435 82.1198 48.4797 81.9512 48.8866C81.7826 49.2936 81.5355 49.6634 81.2241 49.9748C80.595 50.6039 79.7418 50.9573 78.8522 50.9573C77.9626 50.9573 77.1094 50.6039 76.4803 49.9748C75.8512 49.3458 75.4979 48.4926 75.4979 47.603C75.4979 46.7133 75.8512 45.8602 76.4803 45.2311ZM107.73 63.9811C108.042 63.6696 108.412 63.4225 108.819 63.254C109.226 63.0854 109.662 62.9986 110.102 62.9986C110.543 62.9986 110.979 63.0854 111.386 63.254C111.793 63.4225 112.163 63.6696 112.474 63.9811C112.786 64.2926 113.033 64.6623 113.201 65.0693C113.37 65.4763 113.457 65.9125 113.457 66.353C113.457 66.7935 113.37 67.2297 113.201 67.6366C113.033 68.0436 112.786 68.4134 112.474 68.7248C111.845 69.3539 110.992 69.7073 110.102 69.7073C109.213 69.7073 108.359 69.3539 107.73 68.7248C107.101 68.0958 106.748 67.2426 106.748 66.353C106.748 65.4633 107.101 64.6102 107.73 63.9811ZM119.612 96.2061C119.923 95.8946 120.293 95.6475 120.7 95.479C121.107 95.3104 121.543 95.2236 121.983 95.2236C122.424 95.2236 122.86 95.3104 123.267 95.479C123.674 95.6475 124.044 95.8946 124.355 96.2061C124.667 96.5176 124.914 96.8874 125.082 97.2943C125.251 97.7013 125.338 98.1375 125.338 98.578C125.338 99.0185 125.251 99.4547 125.082 99.8616C124.914 100.269 124.667 100.638 124.355 100.95C123.726 101.579 122.873 101.932 121.983 101.932C121.094 101.932 120.241 101.579 119.612 100.95C118.983 100.321 118.629 99.4676 118.629 98.578C118.629 97.6883 118.983 96.8352 119.612 96.2061Z" fill="#FF9900"/>
<path d="M121.512 48.7124C117.325 52.8999 120.325 65.0499 120.325 65.0499C120.325 65.0499 132.475 68.0561 136.662 63.8623C141.1 59.4249 138.587 53.6124 131.75 53.6249C131.769 46.7874 125.95 44.2749 121.512 48.7124Z" stroke="#FF9900" stroke-width="6.25" stroke-linejoin="round"/>
<path d="M95.4251 21.8556L95.2564 22.4681C95.0689 23.1306 94.9689 23.4681 95.0126 23.7931C95.0564 24.1181 95.2376 24.4056 95.5939 24.9744L95.9251 25.4869C97.1814 27.4869 97.8126 28.4869 97.3876 29.3056C96.9501 30.1244 95.7501 30.2181 93.3376 30.4056L92.7126 30.4556C92.0251 30.5119 91.6876 30.5369 91.3876 30.6931C91.0876 30.8494 90.8626 31.1181 90.4189 31.6619L90.0126 32.1556C88.4501 34.0556 87.6689 35.0056 86.7751 34.8869C85.8814 34.7619 85.4626 33.6494 84.6439 31.4181L84.4314 30.8431C84.1939 30.2056 84.0814 29.8931 83.8501 29.6556C83.6189 29.4306 83.3001 29.3119 82.6689 29.0806L82.0939 28.8681C79.8626 28.0431 78.7501 27.6306 78.6251 26.7431C78.5001 25.8431 79.4564 25.0556 81.3564 23.4931L81.8501 23.0869C82.3876 22.6494 82.6626 22.4244 82.8189 22.1244C82.9751 21.8244 83.0064 21.4806 83.0564 20.7931L83.1064 20.1681C83.2939 17.7619 83.3876 16.5556 84.2001 16.1244C85.0189 15.6931 86.0189 16.3244 88.0189 17.5869L88.5376 17.9119C89.1001 18.2744 89.3876 18.4494 89.7189 18.4931C90.0439 18.5431 90.3751 18.4431 91.0439 18.2556L91.6501 18.0869C94.0001 17.4181 95.1689 17.0869 95.8001 17.7119C96.4251 18.3369 96.0939 19.5119 95.4251 21.8556Z" stroke="#FF9900" stroke-width="6.25"/>
</svg>
