<svg width="30" height="30" viewBox="0 0 30 30" fill="none" xmlns="http://www.w3.org/2000/svg">
<path d="M16.5 14.25C16.5 14.0511 16.579 13.8603 16.7197 13.7197C16.8603 13.579 17.0511 13.5 17.25 13.5C17.4489 13.5 17.6397 13.579 17.7803 13.7197C17.921 13.8603 18 14.0511 18 14.25V15.75C18 15.9489 17.921 16.1397 17.7803 16.2803C17.6397 16.421 17.4489 16.5 17.25 16.5C17.0511 16.5 16.8603 16.421 16.7197 16.2803C16.579 16.1397 16.5 15.9489 16.5 15.75V14.25Z" stroke="#333333" stroke-width="1.125"/>
<path d="M16.5106 18.75L17.0731 18.7515V18.75H16.5106ZM16.5106 11.25H17.0731V11.2485L16.5106 11.25ZM17.0686 20.2538L17.0731 18.7515L15.9481 18.7485L15.9436 20.2508L17.0686 20.2538ZM17.2621 18.5625C17.3678 18.5625 17.4519 18.648 17.4519 18.75H18.5768C18.5768 18.024 17.9866 17.4375 17.2621 17.4375V18.5625ZM17.2621 17.4375C16.5376 17.4375 15.9481 18.024 15.9481 18.75H17.0731C17.0731 18.648 17.1563 18.5625 17.2621 18.5625V17.4375ZM13.4964 9.5625H16.1289V8.4375H13.4964V9.5625ZM15.7561 20.4375H13.4964V21.5625H15.7561V20.4375ZM13.4964 20.4375C12.0631 20.4375 11.0438 20.436 10.2713 20.3325C9.51385 20.2313 9.0781 20.0408 8.75935 19.7228L7.9651 20.52C8.5276 21.081 9.2416 21.33 10.1221 21.4485C10.9876 21.5648 12.0946 21.5633 13.4971 21.5633L13.4964 20.4375ZM13.4964 8.4375C12.0939 8.4375 10.9868 8.436 10.1213 8.55225C9.24085 8.67075 8.5276 8.91975 7.9651 9.48075L8.7601 10.2773C9.0781 9.95925 9.5146 9.76875 10.2713 9.6675C11.0438 9.564 12.0631 9.5625 13.4964 9.5625V8.4375ZM7.94035 14.1818C8.22985 14.343 8.4226 14.6498 8.4226 15H9.5476C9.54762 14.6329 9.44961 14.2724 9.2637 13.9558C9.0778 13.6393 8.81073 13.3781 8.4901 13.1993L7.94035 14.1818ZM8.0701 12.765C8.1286 11.373 8.31835 10.7168 8.7601 10.2773L7.9651 9.48075C7.1926 10.2518 7.0051 11.31 6.9451 12.7185L8.0701 12.765ZM8.4226 15C8.4226 15.3503 8.22985 15.657 7.94035 15.819L8.48935 16.8015C8.81023 16.6227 9.07752 16.3614 9.26357 16.0447C9.44962 15.728 9.54768 15.3673 9.5476 15H8.4226ZM6.94585 17.2815C7.00585 18.6885 7.19335 19.749 7.9651 20.5193L8.7601 19.7228C8.31835 19.2833 8.1286 18.6263 8.0701 17.2343L6.94585 17.2815ZM21.5776 15C21.5776 14.6498 21.7704 14.343 22.0599 14.1818L21.5108 13.1993C21.1901 13.378 20.9229 13.6391 20.7368 13.9557C20.5508 14.2723 20.4527 14.6328 20.4526 15H21.5776ZM23.0544 12.7185C22.9944 11.3115 22.8068 10.251 22.0351 9.48075L21.2401 10.2773C21.6811 10.7168 21.8716 11.3738 21.9301 12.7658L23.0544 12.7185ZM22.0599 15.819C21.9137 15.7379 21.7919 15.6192 21.7071 15.4752C21.6223 15.3312 21.5776 15.1671 21.5776 15H20.4526C20.4526 15.7755 20.8808 16.449 21.5108 16.8008L22.0599 15.819ZM21.9301 17.2343C21.8716 18.6263 21.6818 19.2833 21.2401 19.7228L22.0351 20.5193C22.8076 19.749 22.9951 18.6893 23.0544 17.2815L21.9301 17.2343ZM21.5108 16.8008C21.7238 16.92 21.8633 16.998 21.9571 17.0573C22.0036 17.0865 22.0246 17.1023 22.0306 17.1068C22.0411 17.1158 22.0028 17.0888 21.9668 17.0243L22.9494 16.4745C22.8971 16.3847 22.8287 16.3054 22.7476 16.2405C22.687 16.1915 22.6234 16.1464 22.5571 16.1055C22.4319 16.026 22.2601 15.9308 22.0599 15.8183L21.5108 16.8008ZM23.0544 17.2815C23.0596 17.1533 23.0656 17.0205 23.0611 16.9095C23.0585 16.7576 23.02 16.6086 22.9486 16.4745L21.9668 17.0235C21.9293 16.956 21.9346 16.9095 21.9369 16.959C21.9376 16.98 21.9384 17.0115 21.9369 17.0595L21.9301 17.2343L23.0544 17.2815ZM22.0599 14.1818C22.2601 14.0693 22.4319 13.974 22.5571 13.8945C22.6233 13.8534 22.6869 13.8083 22.7476 13.7595C22.8285 13.6946 22.8966 13.6152 22.9486 13.5255L21.9668 12.9765C22.0028 12.9113 22.0411 12.8843 22.0298 12.8933C22.0065 12.9111 21.9823 12.9276 21.9571 12.9428C21.8633 13.0028 21.7246 13.08 21.5108 13.1993L22.0599 14.1818ZM21.9301 12.7658L21.9369 12.9398C21.9384 12.9878 21.9376 13.0193 21.9369 13.0403C21.9346 13.0898 21.9293 13.0433 21.9668 12.9758L22.9494 13.5248C23.0202 13.3905 23.0585 13.2415 23.0611 13.0898C23.0637 12.9657 23.0612 12.8416 23.0536 12.7178L21.9301 12.7658ZM7.94035 15.8183C7.7401 15.9308 7.56835 16.0253 7.4431 16.1048C7.37679 16.1456 7.31316 16.1907 7.2526 16.2398C7.17173 16.3047 7.10358 16.3848 7.0516 16.4745L8.03335 17.0228C7.99735 17.088 7.9591 17.115 7.9696 17.106C7.97635 17.1008 7.9966 17.0858 8.0431 17.0565C8.13685 16.9965 8.2756 16.9193 8.48935 16.8L7.94035 15.8183ZM8.0701 17.2335C8.0674 17.1753 8.06515 17.117 8.06335 17.0588C8.06224 17.0253 8.06224 16.9917 8.06335 16.9583C8.0656 16.9088 8.07085 16.9553 8.03335 17.0228L7.05085 16.4738C6.97973 16.6079 6.94143 16.757 6.9391 16.9088C6.9346 17.0198 6.9406 17.1525 6.9466 17.2808L8.0701 17.2335ZM8.48935 13.1985C8.27635 13.0793 8.13685 13.0013 8.0431 12.942C8.01771 12.9269 7.99317 12.9103 7.9696 12.8925C7.9591 12.8835 7.99735 12.9105 8.03335 12.975L7.05085 13.5248C7.11385 13.6358 7.1971 13.7123 7.2526 13.7588C7.3126 13.8083 7.37935 13.8533 7.4431 13.8938C7.56835 13.9733 7.7401 14.0685 7.94035 14.181L8.48935 13.1985ZM6.9451 12.7185C6.93985 12.8468 6.93385 12.9795 6.93835 13.0905C6.9436 13.203 6.96085 13.3658 7.05085 13.5255L8.03335 12.9765C8.07085 13.044 8.06485 13.0905 8.0626 13.041C8.06149 13.0075 8.06149 12.974 8.0626 12.9405L8.06935 12.7658L6.9451 12.7185ZM17.0723 11.2485L17.0664 9.372L15.9421 9.37575L15.9473 11.2515L17.0723 11.2485ZM17.2614 11.4375C17.2366 11.4376 17.2121 11.4328 17.1893 11.4235C17.1664 11.4141 17.1456 11.4003 17.128 11.3829C17.1105 11.3655 17.0965 11.3448 17.087 11.322C17.0774 11.2992 17.0724 11.2747 17.0723 11.25H15.9473C15.9473 11.976 16.5369 12.5625 17.2614 12.5625V11.4375ZM17.4526 11.25C17.4526 11.352 17.3686 11.4375 17.2629 11.4375V12.5625C17.9874 12.5625 18.5776 11.976 18.5776 11.25H17.4526ZM17.4526 9.387V11.25H18.5776V9.387H17.4526ZM18.3826 9.57675C20.0236 9.61875 20.7594 9.79575 21.2416 10.2773L22.0366 9.48075C21.2019 8.64825 20.0214 8.49375 18.4111 8.45175L18.3826 9.57675ZM18.5776 9.387C18.5776 9.492 18.4906 9.579 18.3826 9.57675L18.4111 8.45175C18.2863 8.44865 18.1622 8.47055 18.0461 8.51616C17.9299 8.56177 17.824 8.63016 17.7347 8.71732C17.6454 8.80448 17.5744 8.90863 17.5259 9.02364C17.4775 9.13866 17.4526 9.2622 17.4526 9.387H18.5776ZM16.1289 9.5625C16.0793 9.5623 16.0325 9.54246 15.9975 9.50732C15.9625 9.47218 15.9428 9.4246 15.9429 9.375L17.0679 9.372C17.0671 9.12388 16.9679 8.88619 16.7922 8.71103C16.6165 8.53586 16.3785 8.4375 16.1304 8.4375L16.1289 9.5625ZM18.7989 21.5355C20.2051 21.4755 21.2656 21.288 22.0359 20.5193L21.2401 19.7228C20.8006 20.1623 20.1429 20.3528 18.7524 20.4113L18.7989 21.5355ZM17.4526 18.75V20.2328H18.5776V18.75H17.4526ZM15.9444 20.25C15.9444 20.3408 15.9443 20.4105 15.9421 20.4698C15.9406 20.5298 15.9376 20.5643 15.9346 20.586C15.9316 20.607 15.9309 20.6003 15.9391 20.5785C15.9531 20.5462 15.9732 20.5169 15.9984 20.4923L16.7926 21.2888C16.9371 21.1393 17.0275 20.9458 17.0491 20.739C17.0694 20.5913 17.0679 20.4143 17.0686 20.2538L15.9444 20.25ZM15.7561 21.5625C15.9166 21.5625 16.0944 21.564 16.2421 21.5438C16.4064 21.5213 16.6156 21.465 16.7926 21.2888L15.9976 20.4923C16.0228 20.4672 16.0526 20.4474 16.0853 20.4338C16.1063 20.4248 16.1138 20.4263 16.0928 20.4285C16.054 20.433 16.015 20.4355 15.9758 20.436C15.9158 20.4375 15.8461 20.4375 15.7561 20.4375V21.5625ZM18.7524 20.4113C18.6624 20.415 18.5926 20.418 18.5334 20.4188C18.4741 20.4195 18.4396 20.4188 18.4194 20.4165C18.3991 20.4143 18.4081 20.4128 18.4306 20.4218C18.4583 20.4323 18.4906 20.4518 18.5199 20.4788L17.7413 21.291C17.9243 21.4665 18.1381 21.519 18.3091 21.5355C18.4606 21.5505 18.6384 21.5423 18.7989 21.5355L18.7524 20.4113ZM17.4526 20.2328C17.4526 20.3963 17.4511 20.5778 17.4721 20.73C17.4953 20.8995 17.5561 21.1133 17.7413 21.291L18.5199 20.4788C18.5499 20.5073 18.5693 20.5395 18.5813 20.5665C18.5903 20.589 18.5888 20.5965 18.5866 20.5755C18.582 20.5359 18.5795 20.4961 18.5791 20.4563C18.5776 20.3963 18.5776 20.325 18.5776 20.2328H17.4526Z" fill="#333333"/>
</svg>
