<svg width="43" height="40" viewBox="0 0 43 40" fill="none" xmlns="http://www.w3.org/2000/svg">
<path fill-rule="evenodd" clip-rule="evenodd" d="M42.3327 14.3518H0.666016V9.81476C0.666016 6.18376 3.60911 3.24072 7.24009 3.24072H35.7586C39.3851 3.24072 42.3327 6.18249 42.3327 9.81476V14.3518ZM0.666016 15.4628H42.3327V30.185C42.3327 33.8128 39.3864 36.759 35.7586 36.759H7.24009C3.60784 36.759 0.666016 33.8115 0.666016 30.185V15.4628ZM3.19203 9.35178C3.42184 7.31956 5.14635 5.74072 7.24009 5.74072H35.7586C37.8494 5.74072 39.5764 7.31956 39.8066 9.35178C39.8238 9.50373 39.8327 9.65821 39.8327 9.81476V11.8518H3.16602V9.81476C3.16602 9.65821 3.17484 9.50373 3.19203 9.35178ZM15.014 26.3421C14.8381 26.1978 14.6136 26.1109 14.3697 26.1109H10.2956C9.73546 26.1109 9.27713 26.5692 9.27713 27.1294C9.27713 27.6896 9.73546 28.1479 10.2956 28.1479H14.3697C14.6136 28.1479 14.8381 28.0611 15.014 27.9168C15.2421 27.7296 15.3882 27.4457 15.3882 27.1294C15.3882 26.8131 15.2421 26.5293 15.014 26.3421ZM17.7995 26.3421C17.5714 26.5293 17.4253 26.8131 17.4253 27.1294C17.4253 27.4457 17.5714 27.7296 17.7995 27.9168C17.9754 28.0611 18.1999 28.1479 18.4438 28.1479H26.5919C27.1521 28.1479 27.6105 27.6896 27.6105 27.1294C27.6105 26.5692 27.1521 26.1109 26.5919 26.1109H18.4438C18.1999 26.1109 17.9754 26.1978 17.7995 26.3421ZM35.7586 34.259C38.0057 34.259 39.8327 32.432 39.8327 30.185V17.9628H3.16602V30.185C3.16602 32.432 4.9898 34.259 7.24009 34.259H35.7586Z" fill="#22798C"/>
</svg>
