<svg width="51" height="50" viewBox="0 0 51 50" fill="none" xmlns="http://www.w3.org/2000/svg">
<path d="M4.6665 25.0002C4.6665 17.1439 4.6665 13.2147 7.10817 10.7752C9.54775 8.3335 13.4769 8.3335 21.3332 8.3335H29.6665C37.5228 8.3335 41.4519 8.3335 43.8915 10.7752C46.3332 13.2147 46.3332 17.1439 46.3332 25.0002C46.3332 32.8564 46.3332 36.7856 43.8915 39.2252C41.4519 41.6668 37.5228 41.6668 29.6665 41.6668H21.3332C13.4769 41.6668 9.54775 41.6668 7.10817 39.2252C4.6665 36.7856 4.6665 32.8564 4.6665 25.0002Z" stroke="#BDBDBD" stroke-width="3.125"/>
<path d="M21.3332 34.3752H12.9998M17.1665 28.1252H12.9998M4.6665 20.8335H46.3332" stroke="#BDBDBD" stroke-width="3.125" stroke-linecap="round"/>
<path d="M29.6665 31.2502C29.6665 29.2856 29.6665 28.3043 30.2769 27.6939C30.8873 27.0835 31.8686 27.0835 33.8332 27.0835C35.7978 27.0835 36.779 27.0835 37.3894 27.6939C37.9998 28.3043 37.9998 29.2856 37.9998 31.2502C37.9998 33.2147 37.9998 34.196 37.3894 34.8064C36.779 35.4168 35.7978 35.4168 33.8332 35.4168C31.8686 35.4168 30.8873 35.4168 30.2769 34.8064C29.6665 34.196 29.6665 33.2147 29.6665 31.2502Z" stroke="#BDBDBD" stroke-width="3.125"/>
</svg>
