<?xml version="1.0" encoding="utf-8"?>
<!-- Generator: Adobe Illustrator 27.3.1, SVG Export Plug-In . SVG Version: 6.00 Build 0)  -->
<svg version="1.1" id="圖層_1" xmlns="http://www.w3.org/2000/svg" xmlns:xlink="http://www.w3.org/1999/xlink" x="0px" y="0px"
	 viewBox="0 0 31 30" style="enable-background:new 0 0 31 30;" xml:space="preserve">
<style type="text/css">
	.st0{clip-path:url(#SVGID_00000067214994771819351400000015593218682061651367_);}
</style>
<g>
	<defs>
		<rect id="SVGID_1_" x="5.8" y="5.2" width="19.5" height="19.5"/>
	</defs>
	<clipPath id="SVGID_00000074435967132926853930000015427306789650495365_">
		<use xlink:href="#SVGID_1_"  style="overflow:visible;"/>
	</clipPath>
	<g style="clip-path:url(#SVGID_00000074435967132926853930000015427306789650495365_);">
		<path d="M23.1,7.4c1.2,0,2.2,1,2.2,2.2v1.1H5.8V9.6c0-1.2,1-2.2,2.2-2.2H23.1z M25.2,20.4c0,1.2-1,2.2-2.2,2.2H7.9
			c-1.2,0-2.2-1-2.2-2.2v-6.5h19.5V20.4z M9.5,18.2c-0.3,0-0.5,0.2-0.5,0.5s0.2,0.5,0.5,0.5h2.2c0.3,0,0.5-0.2,0.5-0.5
			s-0.2-0.5-0.5-0.5H9.5z M13.9,19.3h4.3c0.3,0,0.5-0.2,0.5-0.5s-0.2-0.5-0.5-0.5h-4.3c-0.3,0-0.5,0.2-0.5,0.5S13.6,19.3,13.9,19.3z
			"/>
	</g>
</g>
</svg>
