<?xml version="1.0" encoding="utf-8"?>
<!-- Generator: Adobe Illustrator 27.3.1, SVG Export Plug-In . SVG Version: 6.00 Build 0)  -->
<svg version="1.1" id="圖層_1" xmlns="http://www.w3.org/2000/svg" xmlns:xlink="http://www.w3.org/1999/xlink" x="0px" y="0px"
	 viewBox="0 0 31 30" style="enable-background:new 0 0 31 30;" xml:space="preserve">
<style type="text/css">
	.st0{clip-path:url(#SVGID_00000113346919580042624660000016743394860241661072_);}
	.st1{fill:#EC008C;}
	.st2{fill:#2DA343;}
	.st3{fill:#0082C4;}
	.st4{fill:#FAAB54;}
</style>
<g>
	<defs>
		<rect id="SVGID_1_" x="3.5" y="3" width="24" height="24"/>
	</defs>
	<clipPath id="SVGID_00000121243574165848380150000009542404122988774551_">
		<use xlink:href="#SVGID_1_"  style="overflow:visible;"/>
	</clipPath>
	<g style="clip-path:url(#SVGID_00000121243574165848380150000009542404122988774551_);">
		<path d="M12.4,19.3c-0.1,0.1-0.1,0.1-0.1,0.2c0,0.1,0,0.1,0.1,0.2c0.1,0.1,0.1,0.1,0.2,0.1c0.1,0,0.1,0,0.2-0.1l0.8-0.8
			c0.1,0,0.1-0.1,0.1-0.2c0-0.1,0-0.1-0.1-0.2l-0.8-0.8c-0.1,0-0.1-0.1-0.2-0.1c-0.1,0-0.1,0-0.2,0.1c0,0.1-0.1,0.1-0.1,0.2
			s0,0.1,0.1,0.2l0.6,0.6L12.4,19.3z M6.5,21.5C6.5,21.5,6.5,21.5,6.5,21.5c0.8-0.1,1.4-0.3,1.9-0.6c0.5,0.3,1.2,0.6,1.9,0.7
			c0,0,0,0,0,0c0.1,0,0.2-0.1,0.3-0.2c0,0,0,0,0,0c0-0.1-0.1-0.2-0.2-0.3c-0.5-0.1-1-0.3-1.5-0.5l0,0c0.6-0.5,1.2-1,1.4-1.4
			c0-0.1,0.1-0.2,0.1-0.3c0,0,0-0.1,0-0.2c0-0.1-0.1-0.2-0.2-0.2c-0.1,0-0.2-0.1-0.3-0.1H7.2l0.3-0.5c0,0,0-0.1,0-0.1
			c0-0.1,0-0.2-0.1-0.2c0,0-0.1,0-0.1,0c-0.1,0-0.2,0-0.2,0.1l-0.6,0.9c0,0,0,0.1,0,0.1c0,0,0,0.1,0,0.1c0,0.1,0.1,0.1,0.2,0.1h3
			c-0.1,0.2-0.3,0.4-0.5,0.6c-0.2,0.2-0.5,0.5-0.8,0.7c-0.1,0-0.1,0.1-0.2,0.1c-0.5-0.3-0.8-0.7-1-1c0-0.1-0.1-0.1-0.2-0.1
			c-0.1,0-0.1,0-0.2,0c-0.1,0-0.1,0.1-0.1,0.2c0,0,0,0.1,0,0.2c0.2,0.3,0.5,0.7,1,1c-0.4,0.2-0.9,0.4-1.5,0.5
			c-0.1,0-0.2,0.1-0.2,0.3c0,0,0,0,0,0C6.2,21.4,6.3,21.5,6.5,21.5z M5.5,20.7c0,0.1,0.1,0.3,0.3,0.3C5.9,21,6,20.9,6,20.7v-2.2
			c0-0.1-0.1-0.3-0.3-0.3c-0.1,0-0.3,0.1-0.3,0.3V20.7z M16.5,18.6h2.1c0.1,0,0.3-0.1,0.3-0.3c0-0.1-0.1-0.3-0.3-0.3h-1.7l0.2-0.3
			c0,0,0-0.1,0-0.1c0-0.1-0.1-0.2-0.2-0.2c0,0-0.1,0-0.1,0c-0.1,0-0.2,0.1-0.2,0.2l-0.3,0.7c0,0,0,0.1,0,0.1c0,0,0,0.1,0,0.1
			C16.3,18.6,16.4,18.6,16.5,18.6z M16.2,19.7c0-0.1-0.1-0.3-0.3-0.3H15c0-0.1,0-0.2,0-0.3c0-0.1,0-0.2,0-0.3h0.8
			c0.1,0,0.1,0,0.2-0.1c0,0,0.1-0.1,0.1-0.2v-0.9c0-0.1-0.1-0.3-0.3-0.3s-0.3,0.1-0.3,0.3v0.7h-1.3c-0.1,0-0.3,0.1-0.3,0.3
			c0,0.1,0.1,0.3,0.3,0.3h0.3c0,0.1,0,0.2,0,0.3c0,0.4,0,1-0.1,1.7c-0.1,0.6-0.2,1.3-0.5,1.8c0,0,0,0.1,0,0.1c0,0.1,0.1,0.2,0.1,0.2
			c0,0,0.1,0,0.1,0c0.1,0,0.2-0.1,0.2-0.1c0.3-0.6,0.4-1.3,0.5-1.9c0-0.3,0.1-0.6,0.1-0.9h0.7c0,0.2,0,0.5,0,0.9
			c0,0.6-0.2,1.4-0.3,2c0,0,0,0,0,0.1c0,0.1,0.1,0.2,0.2,0.3c0,0,0,0,0.1,0c0.1,0,0.2-0.1,0.3-0.2c0.2-0.7,0.3-1.4,0.3-2.1
			C16.2,20.3,16.2,19.8,16.2,19.7z M16.9,22.6c-0.1,0-0.3,0.1-0.3,0.3c0,0.1,0.1,0.3,0.3,0.3h0.7c0.3,0,0.5-0.2,0.5-0.5v-1.4h0.6
			c0.1,0,0.3-0.1,0.3-0.3c0-0.1-0.1-0.3-0.3-0.3h-0.6v-0.5l0.5-0.8c0,0,0-0.1,0-0.1c0,0,0-0.1,0-0.1c0-0.1-0.1-0.1-0.2-0.1h-1.5
			c-0.1,0-0.3,0.1-0.3,0.3c0,0.1,0.1,0.3,0.3,0.3h1.1L17.6,20c0,0,0,0.1,0,0.1v0.6h-1c-0.1,0-0.3,0.1-0.3,0.3c0,0.1,0.1,0.3,0.3,0.3
			h1v1.3L16.9,22.6L16.9,22.6z M5.4,17.4c0,0-0.1,0-0.1,0c-0.1,0-0.2,0-0.2,0.1c-0.2,0.4-0.7,1.1-1.5,1.8c-0.1,0.1-0.1,0.1-0.1,0.2
			c0,0.1,0,0.1,0.1,0.2c0.1,0.1,0.1,0.1,0.2,0.1c0.1,0,0.1,0,0.2-0.1c0.2-0.1,0.3-0.3,0.5-0.4v2c0,0.1,0.1,0.3,0.3,0.3
			c0.1,0,0.3-0.1,0.3-0.3v-2.6c0.3-0.4,0.5-0.7,0.6-0.9c0,0,0-0.1,0-0.1C5.5,17.5,5.5,17.4,5.4,17.4z M10.3,22.1
			c0-0.1-0.1-0.2-0.2-0.2c0,0-0.1,0-0.1,0c-0.1,0-0.2,0.1-0.2,0.2c0,0,0,0.1,0,0.1l0.6,1.4c0,0.1,0.1,0.2,0.2,0.2c0,0,0.1,0,0.1,0
			c0.1,0,0.2-0.1,0.2-0.2c0,0,0-0.1,0-0.1L10.3,22.1z M18.7,23.5c-3.8,0-3.8,0-3.8,0c-0.5,0-0.9-0.2-1.1-0.4
			c-0.1-0.1-0.2-0.2-0.2-0.3v-2.1c0-0.3-0.3-0.6-0.6-0.6h-0.5c-0.1,0-0.3,0.1-0.3,0.3c0,0.1,0.1,0.3,0.3,0.3h0.5
			c0.1,0,0.1,0.1,0.1,0.1v1.9c0,0.1,0,0.3-0.2,0.5c-0.1,0.2-0.3,0.3-0.5,0.4c-0.1,0-0.2,0.1-0.2,0.3c0,0,0,0.1,0,0.1
			c0,0.1,0.1,0.2,0.3,0.2c0,0,0.1,0,0.1,0c0.3-0.1,0.6-0.3,0.7-0.6c0,0,0,0,0,0c0,0,0.1,0.1,0.1,0.1c0.3,0.2,0.7,0.5,1.4,0.5h0
			c0,0,0,0,3.8,0c0.1,0,0.3-0.1,0.3-0.3C19,23.6,18.9,23.5,18.7,23.5z M4.6,21.9c-0.2,0-0.3,0.1-0.3,0.3v0c0,0,0,0.2,0,0.5
			c0,0.3-0.1,0.6-0.3,0.8c0,0,0,0.1,0,0.2c0,0.1,0,0.2,0.1,0.2c0,0,0.1,0,0.2,0c0.1,0,0.2,0,0.2-0.1c0.2-0.3,0.3-0.7,0.4-1
			c0.1-0.3,0.1-0.5,0.1-0.6c0,0,0,0,0,0C4.9,22,4.8,21.9,4.6,21.9z M24.8,21.7c0.1,0.1,0.1,0.1,0.2,0.1c0.1,0,0.1,0,0.2-0.1
			c0.1-0.1,0.1-0.1,0.1-0.2c0-0.1,0-0.1-0.1-0.2l-1-1.1c-0.1-0.1-0.1-0.1-0.2-0.1s-0.2,0-0.2,0.1l-1,1.1c0,0.1-0.1,0.1-0.1,0.2
			c0,0.1,0,0.2,0.1,0.2c0.1,0,0.1,0.1,0.2,0.1c0.1,0,0.2,0,0.2-0.1l0.8-0.9L24.8,21.7z M22.8,17.7c0-0.1-0.1-0.2-0.2-0.3
			c0,0-0.1,0-0.1,0c-0.1,0-0.2,0.1-0.3,0.2c-0.1,0.2-0.3,0.6-0.6,1c-0.3,0.5-0.8,1-1.4,1.5c-0.1,0.1-0.1,0.1-0.1,0.2
			c0,0.1,0,0.1,0.1,0.2c0.1,0.1,0.1,0.1,0.2,0.1c0.1,0,0.1,0,0.2-0.1c0.3-0.3,0.6-0.5,0.8-0.8v4c0,0.2,0.1,0.3,0.3,0.3
			c0.2,0,0.3-0.1,0.3-0.3v-4.6c0-0.1,0.1-0.1,0.1-0.2c0.4-0.5,0.6-0.9,0.7-1.1C22.8,17.8,22.8,17.8,22.8,17.7z M27.2,18.9h-0.8v-1.2
			c0-0.2-0.1-0.3-0.3-0.3c-0.2,0-0.3,0.1-0.3,0.3v1.2h-3.2c-0.2,0-0.3,0.1-0.3,0.3c0,0.2,0.1,0.3,0.3,0.3h3.2v3.2
			c0,0.2-0.1,0.4-0.2,0.6c-0.2,0.2-0.4,0.2-0.6,0.2c-0.2,0-0.4-0.1-0.6-0.2c-0.2-0.2-0.2-0.4-0.2-0.6v-0.8c0-0.2-0.1-0.3-0.3-0.3
			c-0.2,0-0.3,0.1-0.3,0.3v0.8c0,0.8,0.6,1.4,1.4,1.4c0.8,0,1.4-0.6,1.4-1.4v-3.2h0.8c0.2,0,0.3-0.1,0.3-0.3
			C27.5,19,27.4,18.9,27.2,18.9z M9.4,22C9.3,22,9.2,21.9,9,21.9H7.2C7.1,21.9,7,22,7,22.2c0,0,0,0.1,0,0.1l0.3,0.8
			c0,0.1,0.1,0.2,0.2,0.2c0,0,0.1,0,0.1,0c0.1,0,0.2-0.1,0.2-0.2c0,0,0-0.1,0-0.1l-0.2-0.4H9v0.9c0,0,0,0.1-0.1,0.1H6.1
			c0,0-0.1,0-0.1-0.1v-1.6c0-0.2-0.1-0.3-0.3-0.3c-0.2,0-0.3,0.1-0.3,0.3v1.7c0,0.3,0.3,0.6,0.6,0.6h2.8c0.3,0,0.6-0.3,0.6-0.6v-1
			C9.5,22.2,9.5,22.1,9.4,22z"/>
		<path class="st1" d="M15.4,13.1c0.4,0,0.7,0.8,0.9,1c0.1,0.1,0.2,0.2,0.3,0.3c0,0,0.2,0.2,0.3,0.2c0.4,0,0.6-0.1,0.8-0.1
			c0.2-0.1,0.4-0.1,0.6-0.2c0.2-0.1,1.7-0.7,1.8-0.2c0.1,0.4-1,1-1.3,1.2c-0.1,0-0.1,0.1-0.1,0.1c-0.3,0.1-1.3,0.5-1.7,0.4
			c-0.5-0.1-1.2-1.3-1.4-1.8C15.7,13.9,15.2,13.1,15.4,13.1z"/>
		<path class="st1" d="M17.9,13.5c-0.1-0.1-0.2-0.2-0.1-0.4c0.3-0.6,0.5-1.2,0.5-1.9c0,0,0-0.1,0-0.1c0-0.8-0.2-1.6-0.6-2.2
			c-0.4-0.6-1-1.2-1.6-1.5c-0.1-0.1-0.2-0.2-0.1-0.4c0.1-0.1,0.2-0.2,0.4-0.1c0.8,0.4,1.4,1,1.9,1.7c0.5,0.7,0.7,1.6,0.7,2.5
			c0,0,0,0.1,0,0.1c0,0.8-0.2,1.6-0.6,2.2c0,0.1-0.1,0.1-0.2,0.1C18,13.5,17.9,13.5,17.9,13.5z"/>
		<path class="st2" d="M21.4,10.3c-0.3-1.2-1-2.3-1.8-3.2c-0.1-0.1-0.3-0.1-0.4,0c-0.1,0.1-0.1,0.3,0,0.4c0.5,0.4,0.9,1,1.2,1.5
			c-0.9-0.8-2.1-1.2-3.3-1.2c-0.5,0-1,0.1-1.5,0.2c-1.3,0.4-2.3,1.2-3,2.3c-0.1,0.1,0,0.3,0.1,0.4c0,0,0.1,0,0.2,0
			c0.1,0,0.2,0,0.2-0.1c0.6-1,1.5-1.7,2.7-2c0.4-0.1,0.9-0.2,1.3-0.2c1.3,0,2.5,0.5,3.4,1.4c0,0,0,0-0.1,0c-0.4,0-0.7,0.1-0.9,0.2
			c-0.2,0.1-0.3,0.2-0.3,0.2c-0.1,0.1-0.1,0.3,0,0.4c0.1,0.1,0.1,0.1,0.2,0.1c0.1,0,0.1,0,0.2-0.1c0,0,0,0,0,0c0,0,0.1-0.1,0.3-0.2
			c0.2-0.1,0.4-0.1,0.6-0.1c0.2,0,0.4,0,0.7,0.2c0.1,0,0.2,0,0.3,0C21.4,10.5,21.4,10.4,21.4,10.3z"/>
		<path class="st1" d="M16,11.7c0.6,0,1-0.4,1-1c0-0.5-0.5-1-1-1c-0.6,0-1,0.4-1,1C15,11.3,15.4,11.7,16,11.7z"/>
		<path class="st3" d="M10.1,11.6c0,0.2-0.1,0.3-0.3,0.3c-0.2,0-0.3-0.1-0.3-0.3c0-0.1,0-0.2,0-0.2c0-1.3,0.5-2.5,1.4-3.4
			c0.7-0.8,1.8-1.3,2.9-1.5c-0.4-0.1-0.7-0.1-1.1-0.1c-0.2,0-0.4,0-0.6,0c-0.2,0-0.3-0.1-0.3-0.2c0-0.2,0.1-0.3,0.2-0.3
			c0.2,0,0.4,0,0.6,0c1,0,1.9,0.3,2.8,0.8c0.1,0.1,0.1,0.1,0.1,0.3c0,0.1-0.1,0.2-0.2,0.2c-0.6,0.3-1.1,0.7-1.5,1.2
			c-0.1,0.1-0.1,0.1-0.2,0.1c-0.1,0-0.1,0-0.2-0.1c-0.1-0.1-0.1-0.3,0-0.4c0.3-0.3,0.6-0.7,1-0.9c-0.1,0-0.1,0-0.2,0
			c-1.2,0.1-2.2,0.6-2.9,1.3c-0.7,0.8-1.2,1.8-1.2,3C10.1,11.5,10.1,11.6,10.1,11.6z"/>
		<path class="st4" d="M12.9,11.5c-0.1-0.1-0.3,0-0.4,0.1c-0.3,0.6-0.4,1.2-0.4,1.9c0,0,0,0,0,0.1c-0.4-0.8-0.6-1.8-0.6-2.9
			c0,0,0-0.1,0-0.1c0-1.1,0.3-2.2,0.7-3c0.1-0.1,0-0.3-0.1-0.4c-0.1-0.1-0.3,0-0.4,0.1C11.3,8.3,11,9.4,11,10.6c0,0,0,0.1,0,0.1
			c0,1.3,0.3,2.4,0.8,3.4c-0.6-0.4-1.1-0.9-1.4-1.6c-0.1-0.1-0.2-0.2-0.4-0.1c-0.1,0.1-0.2,0.2-0.1,0.4c0.6,1.1,1.5,1.9,2.7,2.4
			c0,0,0.1,0,0.1,0c0.1,0,0.1,0,0.2-0.1c0.1-0.1,0.1-0.2,0.1-0.3c-0.1-0.4-0.2-0.8-0.2-1.2c0-0.6,0.1-1.1,0.3-1.7
			C13.1,11.7,13.1,11.6,12.9,11.5z"/>
	</g>
</g>
</svg>
