<svg width="200" height="68" viewBox="0 0 200 68" fill="none" xmlns="http://www.w3.org/2000/svg">
<path d="M41.1916 17.2457C40.3598 14.0292 38.8736 11.0187 36.8259 8.40236C34.806 5.85911 32.1882 3.85514 29.2059 2.56911C26.1323 1.21449 22.0993 0.53711 17.1068 0.536957H1.54145C1.13271 0.536957 0.740709 0.699284 0.451643 0.988263C0.162578 1.27724 0.000121721 1.66921 0 2.07795L0 54.1658C0.000182577 54.5745 0.162673 54.9663 0.451738 55.2552C0.740804 55.5441 1.13277 55.7064 1.54145 55.7063H17.1061C20.1413 55.7063 23.5283 55.2045 27.2671 54.2009C30.0012 53.4738 32.5602 52.0125 34.9441 49.8171C37.3848 47.5391 39.2931 44.751 40.5331 41.6512C41.8748 38.4025 42.5459 33.83 42.5465 27.9338C42.5665 24.327 42.1109 20.7334 41.1916 17.2457ZM21.2732 34.5595C20 34.5595 18.7554 34.182 17.6967 33.4746C16.6381 32.7672 15.813 31.7618 15.3257 30.5855C14.8385 29.4092 14.711 28.1148 14.9594 26.8661C15.2078 25.6173 15.8209 24.4702 16.7212 23.5699C17.6215 22.6696 18.7686 22.0565 20.0173 21.8081C21.2661 21.5597 22.5605 21.6872 23.7368 22.1744C24.9131 22.6617 25.9185 23.4868 26.6259 24.5455C27.3332 25.6041 27.7108 26.8487 27.7108 28.122C27.7107 29.8293 27.0324 31.4666 25.8252 32.6739C24.6179 33.8811 22.9806 34.5594 21.2732 34.5595Z" fill="white"/>
<path d="M76.4825 0.536255H60.9177C55.9256 0.536255 51.8927 1.21364 48.8188 2.56842C45.8364 3.85461 43.2185 5.85882 41.1987 8.40235C41.0576 8.58092 40.9401 8.77693 40.8042 8.9594C42.3101 11.2922 43.4376 13.8485 44.1451 16.5335C45.1246 20.25 45.6099 24.0794 45.5885 27.9228C45.5885 34.2056 44.8735 39.0781 43.4434 42.5402C42.7493 44.2349 41.8777 45.8514 40.8432 47.3626C41.5241 48.238 42.272 49.0591 43.0803 49.8184C45.4641 52.014 48.0232 53.4753 50.7575 54.2023C54.4964 55.2059 57.8834 55.7075 60.9186 55.7072H76.4835C76.6859 55.7073 76.8864 55.6674 77.0734 55.59C77.2604 55.5125 77.4304 55.399 77.5735 55.2558C77.7166 55.1127 77.8302 54.9427 77.9076 54.7557C77.9851 54.5687 78.0249 54.3682 78.0249 54.1658V2.07795C78.0249 1.87542 77.9851 1.67488 77.9076 1.48777C77.83 1.30067 77.7164 1.13066 77.5732 0.987491C77.43 0.844318 77.2599 0.73078 77.0728 0.653354C76.8856 0.575929 76.6851 0.536135 76.4825 0.536255ZM58.538 34.5595C57.2648 34.5594 56.0202 34.1818 54.9616 33.4744C53.903 32.767 53.078 31.7615 52.5908 30.5852C52.1036 29.4089 51.9762 28.1145 52.2247 26.8658C52.4731 25.617 53.0863 24.47 53.9866 23.5698C54.8869 22.6695 56.034 22.0564 57.2827 21.8081C58.5315 21.5597 59.8258 21.6872 61.0021 22.1745C62.1784 22.6617 63.1838 23.4869 63.8911 24.5455C64.5985 25.6041 64.976 26.8488 64.976 28.122C64.976 28.9674 64.8095 29.8046 64.486 30.5856C64.1624 31.3667 63.6882 32.0764 63.0904 32.6742C62.4925 33.272 61.7828 33.7461 61.0017 34.0696C60.2206 34.3931 59.3835 34.5596 58.538 34.5595Z" fill="white"/>
<path d="M87.5747 55.6489V0.536255H103.289C107.399 0.536255 111.008 1.05 114.116 2.07748C117.224 3.10497 119.63 4.79675 121.334 7.15284C123.037 9.50924 123.89 12.6919 123.891 16.7009C123.891 20.5614 123.039 23.744 121.334 26.2489C119.63 28.7537 117.249 30.6208 114.191 31.8503C111.133 33.0788 107.599 33.6929 103.59 33.6924H94.4931V55.6489H87.5747ZM94.4931 28.055H102.687C107.499 28.055 111.083 27.1527 113.439 25.3482C115.795 23.5437 116.973 20.6615 116.973 16.7015C116.973 12.6926 115.758 9.93585 113.327 8.43127C110.896 6.92669 107.249 6.17494 102.387 6.17601H94.4931V28.055Z" fill="white"/>
<path d="M165.58 54.1414L161.237 36.5811C161.241 36.4354 161.249 36.2906 161.249 36.145C161.256 31.5769 159.642 27.1543 156.694 23.6649C153.746 20.1755 149.655 17.8458 145.149 17.0906C140.644 16.3355 136.017 17.204 132.092 19.5414C128.167 21.8787 125.199 25.5333 123.717 29.8543C122.235 34.1753 122.334 38.8821 123.998 43.1366C125.661 47.3911 128.781 50.9171 132.801 53.0866C136.821 55.2562 141.481 55.9284 145.95 54.9837C150.419 54.0389 154.408 51.5385 157.207 47.9276L159.138 55.7361L165.58 54.1414ZM141.993 48.7626C139.497 48.7627 137.057 48.0227 134.982 46.6362C132.907 45.2496 131.29 43.2789 130.335 40.9732C129.38 38.6675 129.13 36.1303 129.617 33.6825C130.103 31.2347 131.305 28.9863 133.07 27.2216C134.835 25.4568 137.083 24.255 139.531 23.7681C141.979 23.2812 144.516 23.5311 146.821 24.4861C149.127 25.4412 151.098 27.0585 152.485 29.1336C153.871 31.2087 154.611 33.6484 154.611 36.1441C154.607 39.4896 153.277 42.6969 150.911 45.0625C148.546 47.4281 145.338 48.7588 141.993 48.7626Z" fill="white"/>
<path d="M178.271 59.7973C177.418 62.3029 174.637 67.1768 173.993 67.5644H181.012C181.075 67.4685 181.141 67.3762 181.203 67.2782C182.618 65.0201 183.778 62.6119 184.662 60.0979L200 15.8121H193.308L185.941 38.4428C185.439 40.2974 184.901 42.2148 184.324 44.1948C183.748 46.1747 183.184 48.117 182.632 50.0216H182.256C181.554 48.117 180.865 46.1621 180.189 44.1569C179.513 42.1516 178.849 40.2466 178.196 38.4418L169.926 15.8112H162.782L179.173 56.7137L178.271 59.7973Z" fill="white"/>
</svg>