<svg width="21" height="20" viewBox="0 0 21 20" fill="none" xmlns="http://www.w3.org/2000/svg">
<path d="M12.416 17.7087H9.08268V18.9587H12.416V17.7087ZM3.04102 11.667V8.3337H1.79102V11.667H3.04102ZM18.4577 11.3029V11.667H19.7077V11.3029H18.4577ZM13.1585 3.84287L16.4577 6.81204L17.2935 5.88204L13.9952 2.91287L13.1585 3.84287ZM19.7077 11.3029C19.7077 9.89537 19.7202 9.0037 19.366 8.20704L18.2235 8.7162C18.4452 9.21454 18.4577 9.78537 18.4577 11.3029H19.7077ZM16.4577 6.81204C17.5852 7.82704 18.0019 8.2187 18.2235 8.7162L19.366 8.20704C19.011 7.40954 18.3402 6.82371 17.2935 5.88204L16.4577 6.81204ZM9.10768 2.29204C10.426 2.29204 10.9235 2.30204 11.366 2.47204L11.8144 1.30537C11.1044 1.03204 10.331 1.04204 9.10768 1.04204V2.29204ZM13.9952 2.91371C13.0902 2.09954 12.5244 1.57704 11.8144 1.30537L11.3668 2.47204C11.8102 2.64204 12.1835 2.96537 13.1585 3.84287L13.9952 2.91371ZM9.08268 17.7087C7.49352 17.7087 6.36518 17.707 5.50768 17.592C4.67018 17.4795 4.18685 17.2679 3.83435 16.9154L2.95102 17.7987C3.57435 18.4237 4.36518 18.6995 5.34185 18.8312C6.30018 18.9604 7.52935 18.9587 9.08268 18.9587V17.7087ZM1.79102 11.667C1.79102 13.2204 1.78935 14.4487 1.91852 15.4079C2.05018 16.3845 2.32685 17.1754 2.95018 17.7995L3.83352 16.9162C3.48185 16.5629 3.27018 16.0795 3.15768 15.2412C3.04268 14.3854 3.04102 13.2562 3.04102 11.667H1.79102ZM12.416 18.9587C13.9693 18.9587 15.1977 18.9604 16.1569 18.8312C17.1335 18.6995 17.9244 18.4229 18.5485 17.7995L17.6652 16.9162C17.3119 17.2679 16.8285 17.4795 15.9902 17.592C15.1344 17.707 14.0052 17.7087 12.416 17.7087V18.9587ZM18.4577 11.667C18.4577 13.2562 18.456 14.3854 18.341 15.242C18.2285 16.0795 18.0169 16.5629 17.6644 16.9154L18.5477 17.7987C19.1727 17.1754 19.4485 16.3845 19.5802 15.4079C19.7094 14.4495 19.7077 13.2204 19.7077 11.667H18.4577ZM3.04102 8.3337C3.04102 6.74454 3.04268 5.61621 3.15768 4.75871C3.27018 3.92121 3.48185 3.43787 3.83435 3.08537L2.95102 2.20204C2.32602 2.82537 2.05018 3.61621 1.91852 4.59287C1.78935 5.55121 1.79102 6.78037 1.79102 8.3337H3.04102ZM9.10768 1.04204C7.54518 1.04204 6.31102 1.04037 5.34852 1.16954C4.36768 1.30121 3.57435 1.57787 2.95018 2.20121L3.83352 3.08454C4.18685 2.73287 4.67102 2.52121 5.51435 2.40871C6.37518 2.29371 7.51018 2.29204 9.10768 2.29204V1.04204Z" fill="white"/>
<path d="M11.584 2.08301V4.16634C11.584 6.13051 11.584 7.11301 12.194 7.72301C12.804 8.33301 13.7865 8.33301 15.7507 8.33301H19.084" stroke="white" stroke-width="1.25"/>
<path d="M7.83268 11.2505V15.4172M7.83268 15.4172L9.49935 13.8547M7.83268 15.4172L6.16602 13.8547" stroke="white" stroke-width="1.25" stroke-linecap="round" stroke-linejoin="round"/>
</svg>
