<?xml version="1.0" encoding="utf-8"?>
<!-- Generator: Adobe Illustrator 27.3.1, SVG Export Plug-In . SVG Version: 6.00 Build 0)  -->
<svg version="1.1" id="圖層_1" xmlns="http://www.w3.org/2000/svg" xmlns:xlink="http://www.w3.org/1999/xlink" x="0px" y="0px"
	 viewBox="0 0 31 30" style="enable-background:new 0 0 31 30;" xml:space="preserve">
<style type="text/css">
	.st0{clip-path:url(#SVGID_00000092444086626766703940000014012104663887522223_);}
	.st1{fill:#FFFFFF;}
	.st2{fill:#3C4043;}
	.st3{fill:#4285F4;}
	.st4{fill:#34A853;}
	.st5{fill:#FABB05;}
	.st6{fill:#E94235;}
</style>
<g>
	<defs>
		<rect id="SVGID_1_" x="3.8" y="8.8" width="23.4" height="12.5"/>
	</defs>
	<clipPath id="SVGID_00000024708470648953231910000011369668904905026435_">
		<use xlink:href="#SVGID_1_"  style="overflow:visible;"/>
	</clipPath>
	<g style="clip-path:url(#SVGID_00000024708470648953231910000011369668904905026435_);">
		<path class="st1" d="M21,8.8H10c-3.4,0-6.2,2.8-6.2,6.2s2.8,6.2,6.2,6.2H21c3.4,0,6.2-2.8,6.2-6.2S24.4,8.8,21,8.8z"/>
		<path class="st2" d="M21,9.3c0.8,0,1.5,0.2,2.2,0.5c0.7,0.3,1.3,0.7,1.8,1.2c0.5,0.5,0.9,1.1,1.2,1.8c0.3,0.7,0.5,1.5,0.5,2.2
			c0,0.8-0.2,1.5-0.5,2.2c-0.3,0.7-0.7,1.3-1.2,1.8c-0.5,0.5-1.1,0.9-1.8,1.2c-0.7,0.3-1.4,0.5-2.2,0.5H10c-0.8,0-1.5-0.2-2.2-0.5
			C7.1,20,6.5,19.6,6,19c-0.5-0.5-0.9-1.1-1.2-1.8c-0.3-0.7-0.5-1.5-0.5-2.2c0-0.8,0.2-1.5,0.5-2.2C5,12.1,5.5,11.5,6,11
			c0.5-0.5,1.1-0.9,1.8-1.2C8.5,9.4,9.3,9.3,10,9.3H21z M21,8.8H10c-3.4,0-6.2,2.8-6.2,6.2s2.8,6.2,6.2,6.2H21
			c3.4,0,6.2-2.8,6.2-6.2S24.4,8.8,21,8.8z"/>
		<path class="st2" d="M15,15.4v1.9h-0.6v-4.7h1.6c0.4,0,0.7,0.1,1,0.4c0.3,0.3,0.4,0.6,0.4,1c0,0.4-0.1,0.7-0.4,1
			c-0.3,0.3-0.6,0.4-1,0.4L15,15.4L15,15.4z M15,13.2v1.6h1c0.2,0,0.4-0.1,0.6-0.2c0.2-0.2,0.2-0.4,0.2-0.6c0-0.2-0.1-0.4-0.2-0.6
			c-0.2-0.2-0.4-0.2-0.6-0.2L15,13.2L15,13.2z"/>
		<path class="st2" d="M19,14c0.4,0,0.8,0.1,1,0.4c0.3,0.2,0.4,0.6,0.4,1v2h-0.6v-0.4h0c-0.2,0.4-0.6,0.5-1,0.5
			c-0.4,0-0.6-0.1-0.9-0.3c-0.2-0.2-0.4-0.5-0.4-0.8c0-0.3,0.1-0.6,0.4-0.8c0.2-0.2,0.6-0.3,1-0.3c0.4,0,0.6,0.1,0.9,0.2v-0.1
			c0-0.2-0.1-0.4-0.2-0.5c-0.2-0.1-0.4-0.2-0.6-0.2c-0.3,0-0.6,0.1-0.8,0.4l-0.5-0.3C18,14.2,18.4,14,19,14z M18.2,16.3
			c0,0.2,0.1,0.3,0.2,0.4c0.1,0.1,0.3,0.2,0.5,0.2c0.3,0,0.5-0.1,0.7-0.3c0.2-0.2,0.3-0.4,0.3-0.7c-0.2-0.1-0.4-0.2-0.8-0.2
			c-0.2,0-0.4,0.1-0.6,0.2C18.3,16,18.2,16.2,18.2,16.3z"/>
		<path class="st2" d="M23.6,14.1l-2,4.6H21l0.7-1.6l-1.3-3h0.7l0.9,2.3h0l0.9-2.3H23.6z"/>
		<path class="st3" d="M12.6,15.1c0-0.2,0-0.4,0-0.6H10v1l1.4,0c-0.1,0.3-0.2,0.6-0.5,0.8V17h0.9C12.3,16.6,12.6,15.9,12.6,15.1z"/>
		<path class="st4" d="M10.9,16.4c-0.2,0.2-0.5,0.3-0.9,0.3c-0.7,0-1.3-0.5-1.5-1.1H7.6v0.7c0.4,0.9,1.3,1.5,2.4,1.5
			c0.7,0,1.3-0.2,1.8-0.6L10.9,16.4z"/>
		<path class="st5" d="M8.5,15c0-0.2,0-0.3,0.1-0.5v-0.7H7.6c-0.2,0.4-0.3,0.8-0.3,1.2c0,0.4,0.1,0.8,0.3,1.2l0.9-0.7
			C8.5,15.4,8.5,15.2,8.5,15z"/>
		<path class="st6" d="M10,13.4c0.4,0,0.7,0.1,1,0.4l0.8-0.8c-0.5-0.4-1.1-0.7-1.8-0.7c-1,0-1.9,0.6-2.4,1.5l0.9,0.7
			C8.7,13.9,9.3,13.4,10,13.4z"/>
	</g>
</g>
</svg>
