<svg width="24" height="24" viewBox="0 0 24 24" fill="none" xmlns="http://www.w3.org/2000/svg">
<g clip-path="url(#clip0_6537_41321)">
<path d="M1.00098 12.2244C1.00098 9.7065 1.00098 8.4481 1.57298 7.4053C2.14278 6.3614 3.18668 5.7146 5.27338 4.4188L7.47338 3.0537C9.67888 1.6842 10.7822 1 12.001 1C13.2198 1 14.322 1.6842 16.5286 3.0537L18.7286 4.4188C20.8153 5.7146 21.8592 6.3614 22.4301 7.4053C23.001 8.4481 23.001 9.7065 23.001 12.2233V13.8975C23.001 18.1875 23.001 20.3336 21.7118 21.6668C20.4237 23 18.3491 23 14.201 23H9.80098C5.65288 23 3.57828 23 2.29018 21.6668C1.00098 20.3336 1.00098 18.1886 1.00098 13.8975V12.2244Z" stroke="white" stroke-width="1.65"/>
<path d="M12.001 15.2998V18.5998" stroke="white" stroke-width="1.65" stroke-linecap="round"/>
</g>
<defs>
<clipPath id="clip0_6537_41321">
<rect width="24" height="24" fill="white"/>
</clipPath>
</defs>
</svg>
