<svg width="30" height="30" viewBox="0 0 30 30" fill="none" xmlns="http://www.w3.org/2000/svg">
<path d="M27 20.7579C27 22.8117 25.3276 24.4841 23.2738 24.4841H3V9.72619C3 7.67241 4.67241 6 6.72619 6H27V20.7579Z" fill="white"/>
<path d="M20.3982 16.973H21.9385C21.9826 16.973 22.0852 16.9584 22.1293 16.9584C22.4227 16.8997 22.6721 16.6356 22.6721 16.2689C22.6721 15.9168 22.4227 15.6527 22.1293 15.5794C22.0852 15.5647 21.9973 15.5647 21.9386 15.5647H20.3983V16.973H20.3982Z" fill="url(#paint0_linear_4540_6245)"/>
<path d="M21.7623 7.24695C20.2953 7.24695 19.0923 8.43532 19.0923 9.91695V12.6896H22.8625C22.9505 12.6896 23.0532 12.6896 23.1265 12.7042C23.9774 12.7483 24.6082 13.1884 24.6082 13.9511C24.6082 14.5526 24.1828 15.0661 23.3906 15.1688V15.1981C24.2561 15.2568 24.9163 15.7409 24.9163 16.489C24.9163 17.2959 24.1828 17.824 23.2145 17.824H19.0776V23.2519H22.9945C24.4615 23.2519 25.6645 22.0637 25.6645 20.5819V7.24695H21.7623Z" fill="url(#paint1_linear_4540_6245)"/>
<path d="M22.4813 14.1273C22.4813 13.7751 22.2319 13.5404 21.9385 13.4963C21.9093 13.4963 21.8359 13.4817 21.7919 13.4817H20.3982V14.7726H21.7919C21.8359 14.7726 21.9239 14.7726 21.9386 14.758C22.232 14.7139 22.4814 14.4793 22.4814 14.1272L22.4813 14.1273Z" fill="url(#paint2_linear_4540_6245)"/>
<path d="M7.00445 7.24695C5.53745 7.24695 4.33445 8.43532 4.33445 9.91695V16.5038C5.08267 16.8705 5.86014 17.1052 6.6377 17.1052C7.56189 17.1052 8.06064 16.5478 8.06064 15.7849V12.6749H10.3492V15.7702C10.3492 16.9731 9.60104 17.9561 7.06314 17.9561C5.52282 17.9561 4.31982 17.6186 4.31982 17.6186V23.2372H8.2367C9.7037 23.2372 10.9067 22.0489 10.9067 20.5672V7.24714H7.00436L7.00445 7.24695Z" fill="url(#paint3_linear_4540_6245)"/>
<path d="M14.3836 7.24695C12.9166 7.24695 11.7136 8.43532 11.7136 9.91695V13.4084C12.3885 12.8362 13.5621 12.4695 15.4545 12.5575C16.4667 12.6016 17.5523 12.8803 17.5523 12.8803V14.0099C17.0095 13.7312 16.3641 13.4817 15.5278 13.423C14.0902 13.3204 13.2247 14.0245 13.2247 15.2568C13.2247 16.5037 14.0902 17.2079 15.5278 17.0905C16.3641 17.0318 17.0096 16.7678 17.5523 16.5037V17.6333C17.5523 17.6333 16.4814 17.912 15.4545 17.9561C13.5621 18.044 12.3885 17.6773 11.7137 17.1052V23.2666H15.6306C17.0976 23.2666 18.3005 22.0783 18.3005 20.5966V7.24714H14.3836V7.24695Z" fill="url(#paint4_linear_4540_6245)"/>
<defs>
<linearGradient id="paint0_linear_4540_6245" x1="19.0901" y1="16.2706" x2="25.6825" y2="16.2706" gradientUnits="userSpaceOnUse">
<stop stop-color="#007940"/>
<stop offset="0.2285" stop-color="#00873F"/>
<stop offset="0.7433" stop-color="#40A737"/>
<stop offset="1" stop-color="#5CB531"/>
</linearGradient>
<linearGradient id="paint1_linear_4540_6245" x1="19.0897" y1="15.243" x2="25.6825" y2="15.243" gradientUnits="userSpaceOnUse">
<stop stop-color="#007940"/>
<stop offset="0.2285" stop-color="#00873F"/>
<stop offset="0.7433" stop-color="#40A737"/>
<stop offset="1" stop-color="#5CB531"/>
</linearGradient>
<linearGradient id="paint2_linear_4540_6245" x1="19.0899" y1="14.1253" x2="25.6827" y2="14.1253" gradientUnits="userSpaceOnUse">
<stop stop-color="#007940"/>
<stop offset="0.2285" stop-color="#00873F"/>
<stop offset="0.7433" stop-color="#40A737"/>
<stop offset="1" stop-color="#5CB531"/>
</linearGradient>
<linearGradient id="paint3_linear_4540_6245" x1="4.33142" y1="15.243" x2="11.0258" y2="15.243" gradientUnits="userSpaceOnUse">
<stop stop-color="#1F286F"/>
<stop offset="0.4751" stop-color="#004E94"/>
<stop offset="0.8261" stop-color="#0066B1"/>
<stop offset="1" stop-color="#006FBC"/>
</linearGradient>
<linearGradient id="paint4_linear_4540_6245" x1="11.6757" y1="15.243" x2="18.1775" y2="15.243" gradientUnits="userSpaceOnUse">
<stop stop-color="#6C2C2F"/>
<stop offset="0.1735" stop-color="#882730"/>
<stop offset="0.5731" stop-color="#BE1833"/>
<stop offset="0.8585" stop-color="#DC0436"/>
<stop offset="1" stop-color="#E60039"/>
</linearGradient>
</defs>
</svg>
