<?xml version="1.0" encoding="utf-8"?>
<!-- Generator: Adobe Illustrator 27.3.1, SVG Export Plug-In . SVG Version: 6.00 Build 0)  -->
<svg version="1.1" id="圖層_1" xmlns="http://www.w3.org/2000/svg" xmlns:xlink="http://www.w3.org/1999/xlink" x="0px" y="0px"
	 viewBox="0 0 31 30" style="enable-background:new 0 0 31 30;" xml:space="preserve">
<style type="text/css">
	.st0{fill:none;}
	.st1{fill:#C9191D;}
	.st2{fill:#FFFFFF;}
</style>
<rect x="0.5" class="st0" width="30" height="30"/>
<g>
	<rect class="st1" width="31" height="30"/>
	<path class="st2" d="M10.9,5.6C11.2,6,11.2,6.3,11,6.8C10.8,7.2,10,8.5,8.8,9.7c-1.3,1.1-2.5,1.8-2.9,2c-0.5,0.2-0.8,0.2-1.1-0.2
		l-0.4-0.5C4,10.6,3.9,10.1,4.2,9.8c0,0,1.9-1.3,2.8-2C7.8,7.1,9.4,5,9.4,5c0.3-0.3,0.8-0.2,1.1,0.2L10.9,5.6z M10.9,11.1l-0.4-0.5
		c-0.3-0.4-0.8-0.5-1.1-0.2c0,0-1.6,2.1-2.4,2.9C6,14,4,15.3,4,15.3c-0.3,0.3-0.3,0.8,0.1,1.2L4.5,17c0.3,0.4,0.6,0.4,1.1,0.2
		c0.3-0.1,0.7-0.4,1.3-0.7v7.9c0,0.5,0.4,0.9,0.8,0.9h0.7c0.4,0,0.8-0.4,0.8-0.9v-9.7c1-1,1.6-2,1.7-2.4
		C11.2,11.8,11.2,11.4,10.9,11.1z"/>
	<path class="st2" d="M26.3,12.5h-7.7c0,0,0,0,0,0c0,0,0,0,0,0H17c-0.3,0-0.5-0.2-0.5-0.5V11c0-0.3,0.2-0.5,0.5-0.5h1.6
		c0.5,0,0.9-0.4,0.9-0.8V9c0-0.5-0.4-0.8-0.9-0.8H17c-0.3,0-0.5-0.2-0.5-0.5V5.8c0-0.5-0.4-0.9-0.8-0.9H15c-0.5,0-0.9,0.4-0.9,0.9
		v1.8c0,0.3-0.2,0.5-0.5,0.5h-1.6c-0.5,0-0.9,0.4-0.9,0.8v0.6c0,0.5,0.4,0.8,0.9,0.8h1.6c0.3,0,0.5,0.2,0.5,0.5V12
		c0,0.3-0.2,0.5-0.5,0.5h-1.6c-0.5,0-0.9,0.4-0.9,0.8V14c0,0.5,0.4,0.8,0.9,0.8h1.6c0.3,0,0.5,0.2,0.5,0.5v1c0,0.3-0.2,0.5-0.5,0.5
		h-1.6c-0.5,0-0.9,0.4-0.9,0.8v0.6c0,0.5,0.4,0.8,0.9,0.8h1.6c0.3,0,0.5,0.2,0.5,0.5v1.9c0,0.2-0.2,0.5-0.4,0.5
		c-1.4,0.3-2.8,0.6-2.8,0.6c-0.5,0.1-0.8,0.6-0.6,1.1l0.1,0.6c0.1,0.5,0.4,0.7,1.1,0.7c0.7,0,1.6-0.1,3.7-0.6
		c2.1-0.5,3.4-1.4,3.9-1.8c0.5-0.3,0.8-0.6,0.6-1.1l-0.1-0.6c-0.1-0.5-0.6-0.8-1.1-0.7c0,0-0.6,0.3-1.4,0.7
		c-0.3,0.2-0.7-0.1-0.7-0.5v-0.7c0-0.3,0.2-0.5,0.5-0.5h1.6c0.5,0,0.9-0.4,0.9-0.8v-0.6c0-0.5-0.4-0.8-0.9-0.8H17
		c-0.3,0-0.5-0.2-0.5-0.5v-1c0-0.3,0.2-0.5,0.5-0.5h1.6c0,0,0,0,0,0c0,0,0,0,0,0h1.9c0.3,0,0.5,0.2,0.5,0.5v9c0,0.5,0.4,0.9,0.8,0.9
		h0.7c0.4,0,0.8-0.4,0.8-0.9v-9c0-0.3,0.2-0.5,0.5-0.5h2.5c0.5,0,0.9-0.4,0.9-0.8v-0.6C27.2,12.9,26.8,12.5,26.3,12.5z"/>
	<path class="st2" d="M22.2,8c-0.5,0-1-0.4-1-1c0-0.5,0.4-1,1-1s1,0.4,1,1C23.2,7.5,22.7,8,22.2,8z M22.3,4.9c0,0-0.1,0-0.1,0
		c0,0-0.1,0-0.1,0c-1.3,0.1-2.1,1.3-1.9,2.6c0.2,1.3,1.7,4,1.7,4c0.1,0.1,0.2,0.2,0.3,0.2c0.1,0,0.2-0.1,0.3-0.2c0,0,1.5-2.7,1.7-4
		C24.4,6.1,23.6,4.9,22.3,4.9z"/>
</g>
</svg>
