<svg width="19" height="18" viewBox="0 0 19 18" fill="none" xmlns="http://www.w3.org/2000/svg">
<g clip-path="url(#clip0_7206_69088)">
<ellipse cx="9.75" cy="7.73973" rx="9" ry="7.02" fill="white"/>
<path d="M15.2721 7.39718C15.3356 7.39499 15.3989 7.40562 15.4583 7.42842C15.5176 7.45122 15.5717 7.48573 15.6175 7.5299C15.6632 7.57407 15.6995 7.627 15.7244 7.68552C15.7492 7.74404 15.762 7.80696 15.762 7.87053C15.762 7.9341 15.7492 7.99702 15.7244 8.05554C15.6995 8.11406 15.6632 8.16698 15.6175 8.21115C15.5717 8.25532 15.5176 8.28984 15.4583 8.31264C15.3989 8.33544 15.3356 8.34606 15.2721 8.34387H13.9564V9.18762H15.2721C15.336 9.1845 15.3999 9.19439 15.4598 9.2167C15.5198 9.23901 15.5746 9.27327 15.621 9.3174C15.6673 9.36153 15.7042 9.41461 15.7294 9.47343C15.7546 9.53224 15.7676 9.59557 15.7676 9.65956C15.7676 9.72355 15.7546 9.78687 15.7294 9.84569C15.7042 9.9045 15.6673 9.95759 15.621 10.0017C15.5746 10.0458 15.5198 10.0801 15.4598 10.1024C15.3999 10.1247 15.336 10.1346 15.2721 10.1315H13.485C13.3601 10.131 13.2404 10.0811 13.1522 9.99271C13.064 9.90427 13.0143 9.78448 13.0142 9.65956V6.08206C13.0142 5.82162 13.2251 5.60787 13.485 5.60787H15.2754C15.3969 5.61415 15.5113 5.66691 15.5949 5.75523C15.6785 5.84354 15.725 5.96065 15.7246 6.08227C15.7243 6.2039 15.6771 6.32072 15.593 6.40854C15.5088 6.49636 15.3941 6.54844 15.2726 6.554H13.9569V7.39775L15.2721 7.39718ZM12.3842 9.659C12.3832 9.78428 12.3327 9.90408 12.2438 9.99235C12.1549 10.0806 12.0347 10.1302 11.9094 10.1304C11.8353 10.1311 11.7619 10.1145 11.6952 10.082C11.6286 10.0495 11.5704 10.0019 11.5253 9.94306L9.69431 7.45287V9.65843C9.69431 9.7836 9.64459 9.90364 9.55609 9.99214C9.46758 10.0806 9.34754 10.1304 9.22237 10.1304C9.09721 10.1304 8.97717 10.0806 8.88867 9.99214C8.80016 9.90364 8.75044 9.7836 8.75044 9.65843V6.08093C8.75044 5.879 8.88262 5.69787 9.07275 5.63318C9.1197 5.6166 9.16921 5.60841 9.219 5.609C9.36525 5.609 9.50025 5.68831 9.59081 5.79968L11.4364 8.2955V6.08093C11.4364 5.8205 11.6473 5.60675 11.9083 5.60675C12.1693 5.60675 12.3831 5.8205 12.3831 6.08093L12.3842 9.659ZM8.07769 9.659C8.07709 9.78447 8.02679 9.90458 7.93781 9.99304C7.84882 10.0815 7.72841 10.1311 7.60294 10.1309C7.4784 10.1299 7.35931 10.0797 7.27157 9.99136C7.18382 9.90298 7.13452 9.78354 7.13438 9.659V6.0815C7.13438 5.82106 7.34531 5.60731 7.60631 5.60731C7.86675 5.60731 8.07825 5.82106 8.07825 6.0815L8.07769 9.659ZM6.22875 10.1309H4.43831C4.31298 10.1306 4.19282 10.0809 4.10393 9.99255C4.01504 9.90419 3.9646 9.78433 3.96356 9.659V6.0815C3.96356 5.82106 4.17731 5.60731 4.43831 5.60731C4.69931 5.60731 4.91025 5.82106 4.91025 6.0815V9.18706H6.22875C6.35392 9.18706 6.47395 9.23678 6.56246 9.32529C6.65097 9.41379 6.70069 9.53383 6.70069 9.659C6.70069 9.78416 6.65097 9.9042 6.56246 9.99271C6.47395 10.0812 6.35392 10.1309 6.22875 10.1309ZM18.75 7.73356C18.75 3.7055 14.7096 0.427246 9.75 0.427246C4.79044 0.427246 0.75 3.7055 0.75 7.73356C0.75 11.3431 3.95231 14.3666 8.27625 14.9409C8.56931 15.0022 8.96756 15.1344 9.0705 15.3836C9.16106 15.6086 9.129 15.9573 9.09975 16.1952L8.97656 16.9597C8.94112 17.1852 8.79488 17.8479 9.76181 17.4434C10.7316 17.039 14.9503 14.3851 16.8398 12.2105C18.1318 10.7958 18.75 9.34231 18.75 7.73356Z" fill="#06C755"/>
</g>
<defs>
<clipPath id="clip0_7206_69088">
<rect width="18" height="18" fill="white" transform="translate(0.75)"/>
</clipPath>
</defs>
</svg>
