<?xml version="1.0" encoding="utf-8"?>
<!-- Generator: Adobe Illustrator 27.3.1, SVG Export Plug-In . SVG Version: 6.00 Build 0)  -->
<svg version="1.1" id="圖層_1" xmlns="http://www.w3.org/2000/svg" xmlns:xlink="http://www.w3.org/1999/xlink" x="0px" y="0px"
	 viewBox="0 0 31 30" style="enable-background:new 0 0 31 30;" xml:space="preserve">
<style type="text/css">
	.st0{fill:#06C755;}
	.st1{fill:#FFFFFF;}
</style>
<path d="M12.5,4.8h-1c-0.1,0-0.1,0-0.2,0.1c-0.1,0-0.1,0.1-0.1,0.2v5.9c0,0.1,0,0.1,0.1,0.2c0.1,0,0.1,0.1,0.2,0.1h1
	c0.1,0,0.1,0,0.2-0.1c0.1,0,0.1-0.1,0.1-0.2V5c0-0.1,0-0.1-0.1-0.2C12.6,4.8,12.6,4.8,12.5,4.8z"/>
<path d="M10.1,9.7H7.4V5c0-0.1,0-0.1-0.1-0.2c-0.1,0-0.1-0.1-0.2-0.1h-1C6.1,4.8,6,4.8,6,4.8C5.9,4.9,5.9,4.9,5.9,5v5.9
	c0,0.1,0,0.1,0.1,0.2c0.1,0,0.1,0.1,0.2,0.1h3.9c0.1,0,0.1,0,0.2-0.1c0.1,0,0.1-0.1,0.1-0.2v-1c0-0.1,0-0.1-0.1-0.2
	C10.2,9.8,10.2,9.7,10.1,9.7z"/>
<path d="M24.8,6.2c0.1,0,0.1,0,0.2-0.1c0.1,0,0.1-0.1,0.1-0.2V5c0-0.1,0-0.1-0.1-0.2c-0.1,0-0.1-0.1-0.2-0.1h-3.9
	c-0.1,0-0.1,0-0.2,0.1c-0.1,0-0.1,0.1-0.1,0.2v5.9c0,0.1,0,0.1,0.1,0.2c0.1,0,0.1,0.1,0.2,0.1h3.9c0.1,0,0.1,0,0.2-0.1
	c0.1,0,0.1-0.1,0.1-0.2v-1c0-0.1,0-0.1-0.1-0.2c-0.1,0-0.1-0.1-0.2-0.1h-2.7v-1h2.7c0.1,0,0.1,0,0.2-0.1c0.1,0,0.1-0.1,0.1-0.2v-1
	c0-0.1,0-0.1-0.1-0.2c-0.1,0-0.1-0.1-0.2-0.1h-2.7v-1H24.8z"/>
<path d="M19.3,4.8h-1c-0.1,0-0.1,0-0.2,0.1C18.1,4.9,18,4.9,18,5v3.4l-2.6-3.6c0,0-0.1-0.1-0.1-0.1c-0.1,0-0.1,0-0.2,0c0,0,0,0,0,0
	h-1c-0.1,0-0.1,0-0.2,0.1c-0.1,0-0.1,0.1-0.1,0.2v5.9c0,0.1,0,0.1,0.1,0.2c0.1,0,0.1,0.1,0.2,0.1h1c0.1,0,0.1,0,0.2-0.1
	c0.1,0,0.1-0.1,0.1-0.2V7.4l2.7,3.7c0,0,0.1,0.1,0.1,0.1c0,0,0.1,0,0.1,0h1c0.1,0,0.1,0,0.2-0.1s0.1-0.1,0.1-0.2V5
	c0-0.1,0-0.1-0.1-0.2C19.4,4.8,19.4,4.8,19.3,4.8z"/>
<path class="st0" d="M24,13.9H6.9c-0.5,0-0.9,0.4-0.9,0.9v9.6c0,0.5,0.4,0.9,0.9,0.9H24c0.5,0,0.9-0.4,0.9-0.9v-9.6
	C24.9,14.3,24.5,13.9,24,13.9z"/>
<path class="st1" d="M12.9,18.3c0,1-0.8,1.8-1.9,1.8h-0.8v1.5c0,0,0,0,0,0.1c0,0,0,0,0,0.1c0,0,0,0-0.1,0c0,0,0,0-0.1,0H9
	c0,0-0.1,0-0.1-0.1c0,0-0.1-0.1-0.1-0.1v-4.9c0,0,0-0.1,0.1-0.1c0,0,0.1-0.1,0.1-0.1h1.9C12,16.5,12.9,17.3,12.9,18.3z M11.6,18.3
	c0-0.1,0-0.2,0-0.3c0-0.1-0.1-0.2-0.1-0.2c-0.1-0.1-0.1-0.1-0.2-0.1c-0.1,0-0.2,0-0.3,0h-0.8V19h0.8c0.1,0,0.2,0,0.3,0
	c0.1,0,0.2-0.1,0.2-0.1c0.1-0.1,0.1-0.1,0.1-0.2C11.6,18.5,11.6,18.4,11.6,18.3z"/>
<path class="st1" d="M17.5,18.1v3.6c0,0,0,0,0,0c0,0,0,0,0,0c0,0,0,0,0,0c0,0,0,0,0,0h-1c0,0,0,0,0,0c0,0,0,0,0,0c0,0,0,0,0,0
	c0,0,0,0,0,0v-0.3c-0.3,0.3-0.6,0.5-1.2,0.5c-1,0-1.9-0.9-1.9-2c0-1.1,0.8-2,1.9-2c0.5,0,0.9,0.2,1.2,0.5v-0.3c0,0,0,0,0,0
	c0,0,0,0,0,0c0,0,0,0,0,0c0,0,0,0,0,0L17.5,18.1C17.4,18,17.4,18,17.5,18.1C17.5,18,17.5,18,17.5,18.1C17.5,18,17.5,18,17.5,18.1
	C17.5,18.1,17.5,18.1,17.5,18.1z M16.3,19.9c0-0.6-0.4-0.9-0.9-0.9s-0.9,0.4-0.9,0.9c0,0.6,0.4,0.9,0.9,0.9
	C15.9,20.8,16.3,20.4,16.3,19.9z"/>
<path class="st1" d="M21.4,18.1l-0.9,2.2l-0.9-2.2c0,0,0-0.1-0.1-0.1c0,0-0.1,0-0.1,0h-1c0,0,0,0,0,0c0,0,0,0,0,0c0,0,0,0,0,0
	c0,0,0,0,0,0l1.6,3.6l-0.6,1.4c0,0,0,0,0,0c0,0,0,0,0,0c0,0,0,0,0,0c0,0,0,0,0,0h1c0,0,0.1,0,0.1,0c0,0,0,0,0.1-0.1l2.1-5
	c0,0,0,0,0,0c0,0,0,0,0,0c0,0,0,0,0,0c0,0,0,0,0,0h-1C21.5,18,21.5,18,21.4,18.1C21.5,18,21.4,18.1,21.4,18.1z"/>
</svg>
