<svg width="30" height="30" viewBox="0 0 30 30" fill="none" xmlns="http://www.w3.org/2000/svg">
<path d="M11.7451 9.58496H18.2271V21.2346H11.7451V9.58496Z" fill="#FF5F00"/>
<path d="M12.1571 15.4097C12.1571 13.0427 13.2683 10.9433 14.9762 9.5848C13.7211 8.59687 12.1366 8 10.4081 8C6.31297 8 3 11.3137 3 15.4097C3 19.5055 6.31297 22.8193 10.408 22.8193C12.1365 22.8193 13.721 22.2224 14.9762 21.2344C13.2683 19.8966 12.1571 17.7766 12.1571 15.4097Z" fill="#EB001B"/>
<path d="M26.9728 15.4097C26.9728 19.5055 23.6598 22.8193 19.5648 22.8193C17.8363 22.8193 16.2518 22.2224 14.9966 21.2344C16.7251 19.876 17.8157 17.7766 17.8157 15.4097C17.8157 13.0427 16.7045 10.9433 14.9966 9.5848C16.2517 8.59687 17.8363 8 19.5648 8C23.6598 8 26.9729 11.3343 26.9729 15.4097H26.9728Z" fill="#F79E1B"/>
</svg>
