<svg width="60" height="60" viewBox="0 0 60 60" fill="none" xmlns="http://www.w3.org/2000/svg">
<path d="M50.7802 31.6177L52.0727 26.7877C53.5827 21.1502 54.3402 18.3327 53.7727 15.8927C53.3229 13.9664 52.3119 12.2168 50.8677 10.8652C49.0402 9.15267 46.2202 8.39767 40.5827 6.88767C34.9452 5.37517 32.1252 4.62017 29.6877 5.18767C27.7614 5.63745 26.0118 6.64841 24.6602 8.09267C23.1927 9.65767 22.4277 11.9502 21.2902 16.1152L20.6802 18.3777L19.3877 23.2077C17.8752 28.8452 17.1202 31.6627 17.6877 34.1027C18.1374 36.0289 19.1484 37.7785 20.5927 39.1302C22.4202 40.8427 25.2402 41.5977 30.8777 43.1102C35.9577 44.4702 38.7502 45.2177 41.0377 44.9352C41.2877 44.9052 41.5327 44.8602 41.7727 44.8052C43.6983 44.3568 45.4479 43.3476 46.8002 41.9052C48.5127 40.0752 49.2677 37.2552 50.7802 31.6177Z" stroke="#22798C" stroke-width="3.75"/>
<path d="M41.0377 44.9353C40.5151 46.5361 39.5967 47.9791 38.3677 49.1303C36.5402 50.8428 33.7202 51.5978 28.0827 53.1078C22.4452 54.6178 19.6252 55.3753 17.1877 54.8053C15.2617 54.3562 13.5121 53.3461 12.1602 51.9028C10.4477 50.0753 9.69017 47.2553 8.18017 41.6178L6.88767 36.7878C5.37517 31.1503 4.62017 28.3303 5.18767 25.8928C5.63745 23.9665 6.64841 22.2169 8.09267 20.8653C9.92017 19.1528 12.7402 18.3978 18.3777 16.8853C19.4427 16.6003 20.4102 16.3403 21.2902 16.1128" stroke="#22798C" stroke-width="3.75"/>
<path d="M29.4425 25L41.5175 28.235M27.5 32.245L34.745 34.185" stroke="#22798C" stroke-width="3.75" stroke-linecap="round"/>
</svg>
