<svg width="101" height="100" viewBox="0 0 101 100" fill="none" xmlns="http://www.w3.org/2000/svg">
<g clip-path="url(#clip0_8717_76852)">
<rect x="3.625" y="3.125" width="93.75" height="93.75" rx="46.875" stroke="#BDBDBD" stroke-width="6.25"/>
<path d="M31.9 79.7915V24.7415H49.525C63.85 24.7415 72.85 28.9415 72.85 40.9415C72.85 52.4915 63.775 57.9665 49.825 57.9665H38.875V79.7915H31.9ZM38.875 52.3415H48.85C60.175 52.3415 65.95 48.8915 65.95 40.9415C65.95 32.8415 59.875 30.3665 48.475 30.3665H38.875V52.3415Z" fill="#BDBDBD"/>
<path d="M7.10485 6.18544C5.27427 8.01602 5.27427 10.984 7.10486 12.8146L87.5382 93.248C89.3688 95.0785 92.3368 95.0785 94.1674 93.248C95.998 91.4174 95.998 88.4494 94.1674 86.6188L13.734 6.18544C11.9034 4.35485 8.93544 4.35485 7.10485 6.18544Z" fill="#BDBDBD" stroke="white" stroke-width="3.125"/>
</g>
<defs>
<clipPath id="clip0_8717_76852">
<rect width="100" height="100" fill="white" transform="translate(0.5)"/>
</clipPath>
</defs>
</svg>
