<svg width="30" height="30" viewBox="0 0 30 30" fill="none" xmlns="http://www.w3.org/2000/svg">
<path d="M20.375 6C20.9973 6 21.5 6.50379 21.5 7.125C21.5 7.74621 20.9973 8.25 20.375 8.25V8.63602C20.375 10.1273 19.7809 11.5582 18.7262 12.6129L16.3426 15L18.7262 17.3871C19.7809 18.4418 20.375 19.8727 20.375 21.3633V21.75C20.9973 21.75 21.5 22.2527 21.5 22.875C21.5 23.4973 20.9973 24 20.375 24H9.125C8.50379 24 8 23.4973 8 22.875C8 22.2527 8.50379 21.75 9.125 21.75V21.3633C9.125 19.8727 9.71773 18.4418 10.7724 17.3871L13.1574 15L10.7724 12.6129C9.71773 11.5582 9.125 10.1273 9.125 8.63602V8.25C8.50379 8.25 8 7.74621 8 7.125C8 6.50379 8.50379 6 9.125 6H20.375ZM11.9059 10.5H17.5625C17.9281 9.95156 18.125 9.30398 18.125 8.63602V8.25H11.375V8.63602C11.375 9.30398 11.5719 9.95156 11.9059 10.5ZM11.9059 19.5H17.5625C17.4395 19.3137 17.2988 19.1379 17.1371 18.9762L14.75 16.5926L12.3629 18.9762C12.2012 19.1379 12.0605 19.3137 11.9059 19.5Z" fill="#FF9900"/>
</svg>
