<svg width="30" height="30" viewBox="0 0 30 30" fill="none" xmlns="http://www.w3.org/2000/svg">
<path d="M15 23.5C19.6944 23.5 23.5 19.6944 23.5 15C23.5 10.3056 19.6944 6.5 15 6.5C10.3056 6.5 6.5 10.3056 6.5 15C6.5 19.6944 10.3056 23.5 15 23.5Z" stroke="#333333" stroke-width="1.275"/>
<path d="M15 19.25V20.1M15 19.25C16.4084 19.25 17.55 18.298 17.55 17.125C17.55 15.952 16.4084 15 15 15C13.5915 15 12.45 14.048 12.45 12.875C12.45 11.702 13.5915 10.75 15 10.75M15 19.25C13.5915 19.25 12.45 18.298 12.45 17.125M15 9.90002V10.75M15 10.75C16.4084 10.75 17.55 11.702 17.55 12.875" stroke="#333333" stroke-width="1.275" stroke-linecap="round"/>
</svg>
