<svg width="40" height="40" viewBox="0 0 40 40" fill="none" xmlns="http://www.w3.org/2000/svg">
<path d="M9.99967 10.03C7.41134 10.1358 5.86634 10.5251 4.79801 11.9701C3.33301 13.9462 3.33301 17.1309 3.33301 23.4959C3.33301 29.8608 3.33301 33.0455 4.79801 35.0216C6.26134 37 8.61967 37 13.333 37H26.6663C31.3797 37 33.738 37 35.2013 35.0216C36.6663 33.0455 36.6663 29.8608 36.6663 23.4959C36.6663 17.1309 36.6663 13.9462 35.2013 11.9701C34.133 10.5251 32.5897 10.1358 29.9997 10.03" stroke="#22798C" stroke-width="2.5"/>
<path d="M31.6663 16.6665H8.33301" stroke="#22798C" stroke-width="2.5" stroke-linecap="round"/>
<path d="M31.25 16.6665C31.25 16.998 31.1183 17.316 30.8839 17.5504C30.6495 17.7848 30.3315 17.9165 30 17.9165C29.6685 17.9165 29.3505 17.7848 29.1161 17.5504C28.8817 17.316 28.75 16.998 28.75 16.6665H31.25ZM11.25 16.6665C11.25 16.998 11.1183 17.316 10.8839 17.5504C10.6495 17.7848 10.3315 17.9165 10 17.9165C9.66848 17.9165 9.35054 17.7848 9.11612 17.5504C8.8817 17.316 8.75 16.998 8.75 16.6665H11.25ZM28.75 13.3332C28.75 10.9415 28.7467 9.27317 28.5783 8.01317C28.4133 6.78984 28.1117 6.14317 27.6517 5.68151L29.4183 3.91484C30.4233 4.91651 30.8533 6.1815 31.0567 7.6815C31.2533 9.14483 31.25 11.0115 31.25 13.3332H28.75ZM20 2.08317C22.3217 2.08317 24.1883 2.07984 25.6533 2.2765C27.1533 2.47984 28.4167 2.90983 29.42 3.91317L27.65 5.68317C27.1883 5.2215 26.5417 4.9215 25.3167 4.7565C24.0583 4.58817 22.39 4.58484 19.9983 4.58484L20 2.08317ZM8.75 13.3332C8.75 11.0115 8.74667 9.14484 8.945 7.67984C9.145 6.17984 9.57834 4.9165 10.58 3.91317L12.35 5.68317C11.8883 6.14484 11.5883 6.7915 11.4233 8.0165C11.255 9.27484 11.2517 10.9432 11.2517 13.3348L8.75 13.3332ZM20 4.58317C17.6083 4.58317 15.9383 4.58651 14.68 4.75484C13.4567 4.91984 12.81 5.22151 12.3483 5.68151L10.5817 3.91484C11.5833 2.90984 12.8483 2.47984 14.3483 2.2765C15.8117 2.07984 17.6783 2.08317 20 2.08317V4.58317ZM31.25 13.3332V16.6665H28.75V13.3332H31.25ZM11.25 13.3332V16.6665H8.75V13.3332H11.25Z" fill="#22798C"/>
<path d="M25 12.5H15M21.6667 8.33333H15" stroke="#22798C" stroke-width="2.5" stroke-linecap="round"/>
</svg>
