<svg width="40" height="40" viewBox="0 0 40 40" fill="none" xmlns="http://www.w3.org/2000/svg">
<path d="M19.9999 39C17.0218 38.9978 14.086 38.2962 11.4288 36.9517C8.77157 35.6072 6.46739 33.6574 4.70184 31.2594C2.93629 28.8614 1.75876 26.0823 1.26412 23.146C0.769473 20.2096 0.971547 17.1981 1.85406 14.3541C1.8854 14.2458 1.93803 14.1448 2.00889 14.0571C2.07974 13.9693 2.16738 13.8966 2.26669 13.8431C2.366 13.7896 2.47498 13.7565 2.58725 13.7457C2.69952 13.7348 2.81282 13.7465 2.92053 13.7799C3.02824 13.8134 3.12819 13.868 3.21453 13.9406C3.30087 14.0132 3.37187 14.1022 3.42336 14.2026C3.47486 14.3029 3.50583 14.4125 3.51445 14.525C3.52307 14.6374 3.50917 14.7504 3.47357 14.8575C2.29838 18.6372 2.45569 22.7057 3.91924 26.3834C5.38278 30.0612 8.06395 33.1255 11.515 35.0647C14.966 37.0038 18.9779 37.7004 22.8807 37.0381C26.7835 36.3757 30.3409 34.3946 32.9587 31.4255C35.5766 28.4564 37.0964 24.6791 37.2644 20.7245C37.4324 16.7698 36.2384 12.8773 33.8817 9.69691C31.5251 6.51654 28.1485 4.2409 24.316 3.25004C20.4834 2.25919 16.4268 2.6131 12.8238 4.25267C12.7222 4.30148 12.6118 4.32954 12.4992 4.33519C12.3866 4.34085 12.2739 4.32399 12.1679 4.2856C12.0619 4.24722 11.9646 4.18808 11.8817 4.11164C11.7988 4.0352 11.732 3.943 11.6851 3.84043C11.6383 3.73787 11.6124 3.62699 11.6089 3.51429C11.6054 3.40159 11.6245 3.28933 11.6649 3.18408C11.7054 3.07883 11.7664 2.98269 11.8444 2.90131C11.9225 2.81992 12.016 2.75491 12.1194 2.71008C14.7016 1.53371 17.5145 0.950506 20.3515 1.00329C23.1886 1.05607 25.9778 1.7435 28.5144 3.01511C31.051 4.28671 33.2706 6.11021 35.0102 8.35172C36.7498 10.5932 37.9652 13.1958 38.5673 15.9685C39.1694 18.7411 39.1428 21.6134 38.4895 24.3744C37.8362 27.1354 36.5728 29.7151 34.792 31.9241C33.0112 34.133 30.7583 35.9151 28.1986 37.1396C25.6389 38.364 22.8374 38.9997 19.9999 39Z" fill="#FF9900"/>
<path d="M5.06553 10.5287C4.91065 10.5288 4.75869 10.4866 4.62613 10.4065C4.49357 10.3264 4.38546 10.2116 4.31354 10.0745C4.24162 9.93732 4.20862 9.7831 4.21814 9.62853C4.22765 9.47397 4.27931 9.32496 4.36751 9.19767C5.64195 7.35626 7.23124 5.75407 9.06235 4.46474C9.24624 4.33513 9.47409 4.28387 9.69577 4.32224C9.91746 4.36061 10.1148 4.48546 10.2444 4.66933C10.3741 4.8532 10.4253 5.08102 10.387 5.30268C10.3486 5.52434 10.2237 5.72168 10.0398 5.85129C8.37179 7.026 6.92416 8.48582 5.76354 10.1636C5.6854 10.2764 5.58107 10.3685 5.45949 10.4321C5.33792 10.4957 5.20273 10.5288 5.06553 10.5287Z" fill="#FF9900"/>
<path d="M17.2129 27.2405C16.2424 27.2405 15.7571 26.9311 15.7571 26.3123V9.90267C15.7347 9.74584 15.7491 9.58595 15.7992 9.43567C15.8493 9.28539 15.9338 9.14884 16.0458 9.03684C16.1579 8.92485 16.2945 8.84048 16.4448 8.79043C16.5951 8.74038 16.755 8.72601 16.9118 8.74848H21.3539C26.0551 8.74848 28.4059 10.6142 28.4062 14.3456C28.4062 16.2862 27.77 17.7584 26.4978 18.7622C25.2432 19.7493 23.561 20.2427 21.4515 20.2424H18.6653V26.3123C18.6673 26.9314 18.1832 27.2408 17.2129 27.2405ZM18.6683 17.9052H21.1784C22.6668 17.9052 23.7626 17.621 24.4657 17.0525C25.1849 16.4668 25.5447 15.5634 25.545 14.3422C25.545 13.171 25.1774 12.3429 24.4424 11.8578C23.7215 11.3558 22.5993 11.1048 21.0757 11.1048H19.2438C19.1652 11.0932 19.0851 11.1002 19.0098 11.1251C18.9344 11.15 18.8659 11.1923 18.8098 11.2484C18.7537 11.3045 18.7115 11.373 18.6865 11.4483C18.6616 11.5236 18.6546 11.6038 18.6662 11.6823L18.6683 17.9052Z" fill="#FF9900"/>
<path d="M27.0353 31.9388H13.4228C13.1979 31.9388 12.9821 31.8495 12.8231 31.6904C12.664 31.5314 12.5747 31.3157 12.5747 31.0908C12.5747 30.8659 12.664 30.6502 12.8231 30.4911C12.9821 30.3321 13.1979 30.2427 13.4228 30.2427H27.0353C27.2603 30.2427 27.476 30.3321 27.6351 30.4911C27.7941 30.6502 27.8835 30.8659 27.8835 31.0908C27.8835 31.3157 27.7941 31.5314 27.6351 31.6904C27.476 31.8495 27.2603 31.9388 27.0353 31.9388Z" fill="#FF9900"/>
</svg>
