<svg width="15" height="18" viewBox="0 0 15 18" fill="none" xmlns="http://www.w3.org/2000/svg">
<path d="M7.49587 11.7554C7.8388 11.7554 8.13388 11.4683 8.13388 11.1334V2.94284L8.08603 1.74657L8.62037 2.3128L9.8326 3.60478C9.94425 3.73239 10.1038 3.79619 10.2633 3.79619C10.5902 3.79619 10.8454 3.55693 10.8454 3.22995C10.8454 3.06247 10.7737 2.93487 10.654 2.81524L7.95843 0.21533C7.79893 0.0558263 7.66335 0 7.49587 0C7.33637 0 7.20079 0.0558263 7.03331 0.21533L4.33769 2.81524C4.21807 2.93487 4.15426 3.06247 4.15426 3.22995C4.15426 3.55693 4.39352 3.79619 4.72848 3.79619C4.88001 3.79619 5.05546 3.73239 5.16711 3.60478L6.37137 2.3128L6.91368 1.74657L6.86583 2.94284V11.1334C6.86583 11.4683 7.15294 11.7554 7.49587 11.7554ZM2.92608 18H12.0736C13.7404 18 14.5778 17.1706 14.5778 15.5277V7.56845C14.5778 5.92556 13.7404 5.09615 12.0736 5.09615H9.84855V6.38015H12.0497C12.8392 6.38015 13.2938 6.81081 13.2938 7.64023V15.4559C13.2938 16.2853 12.8392 16.716 12.0497 16.716H2.94204C2.14452 16.716 1.70588 16.2853 1.70588 15.4559V7.64023C1.70588 6.81081 2.14452 6.38015 2.94204 6.38015H5.15116V5.09615H2.92608C1.25927 5.09615 0.421875 5.92556 0.421875 7.56845V15.5277C0.421875 17.1706 1.25927 18 2.92608 18Z" fill="#007AFF"/>
</svg>
