<svg width="51" height="50" viewBox="0 0 51 50" fill="none" xmlns="http://www.w3.org/2000/svg">
<path d="M7.7915 22.9165V29.1665C7.7915 37.0228 7.7915 40.9519 10.2332 43.3915C12.6728 45.8332 16.6019 45.8332 24.4582 45.8332H26.5415C34.3978 45.8332 38.3269 45.8332 40.7665 43.3915C43.2082 40.9519 43.2082 37.0228 43.2082 29.1665V22.9165" stroke="#BDBDBD" stroke-width="3.125"/>
<path d="M20.2919 4.1665H30.7086L32.0669 17.7436C32.1564 18.6598 32.0532 19.5845 31.7639 20.4584C31.4746 21.3323 31.0057 22.136 30.3872 22.8179C29.7687 23.4997 29.0144 24.0445 28.1728 24.4174C27.3312 24.7903 26.4208 24.9829 25.5003 24.9829C24.5797 24.9829 23.6694 24.7903 22.8277 24.4174C21.9861 24.0445 21.2318 23.4997 20.6133 22.8179C19.9948 22.136 19.5259 21.3323 19.2366 20.4584C18.9473 19.5845 18.8441 18.6598 18.9336 17.7436L20.2919 4.1665Z" stroke="#BDBDBD" stroke-width="3.125"/>
<path d="M7.43738 11.1478C7.80822 9.29359 7.99364 8.3665 8.37072 7.61442C8.76363 6.83117 9.31685 6.13929 9.99447 5.58369C10.6721 5.0281 11.459 4.6212 12.3041 4.38942C13.1166 4.1665 14.0624 4.1665 15.9541 4.1665H20.2916L18.7811 19.2603C18.7014 20.1241 18.4463 20.9625 18.0312 21.7243C17.6162 22.4861 17.0501 23.1551 16.3676 23.6905C15.685 24.2259 14.9004 24.6163 14.0617 24.8379C13.223 25.0596 12.3479 25.1077 11.4899 24.9793C10.632 24.851 9.80928 24.5489 9.07215 24.0915C8.33502 23.6342 7.69899 23.0312 7.20298 22.3195C6.70698 21.6078 6.36145 20.8024 6.18753 19.9525C6.01362 19.1027 6.01499 18.2262 6.19155 17.3769L7.43738 11.1478ZM43.5624 11.1478C43.1916 9.29359 43.0061 8.3665 42.6291 7.61442C42.2361 6.83117 41.6829 6.13929 41.0053 5.58369C40.3277 5.0281 39.5408 4.6212 38.6957 4.38942C37.8832 4.1665 36.9374 4.1665 35.0457 4.1665H30.7082L32.2186 19.2603C32.2983 20.1241 32.5535 20.9625 32.9685 21.7243C33.3835 22.4861 33.9496 23.1551 34.6322 23.6905C35.3148 24.2259 36.0994 24.6163 36.9381 24.8379C37.7768 25.0596 38.6519 25.1077 39.5098 24.9793C40.3678 24.851 41.1905 24.5489 41.9276 24.0915C42.6647 23.6342 43.3008 23.0312 43.7968 22.3195C44.2928 21.6078 44.6383 20.8024 44.8122 19.9525C44.9862 19.1027 44.9848 18.2262 44.8082 17.3769L43.5624 11.1478Z" stroke="#BDBDBD" stroke-width="3.125"/>
<path d="M20.2915 44.7913V38.5413C20.2915 36.5934 20.2915 35.6205 20.7103 34.8955C20.9845 34.4205 21.379 34.026 21.854 33.7518C22.579 33.333 23.5519 33.333 25.4998 33.333C27.4478 33.333 28.4207 33.333 29.1457 33.7518C29.6207 34.026 30.0152 34.4205 30.2894 34.8955C30.7082 35.6205 30.7082 36.5934 30.7082 38.5413V44.7913" stroke="#BDBDBD" stroke-width="3.125" stroke-linecap="round"/>
</svg>
