<svg width="101" height="101" viewBox="0 0 101 101" fill="none" xmlns="http://www.w3.org/2000/svg">
<path d="M15.084 46.333V58.833C15.084 74.5455 15.084 82.4038 19.9673 87.283C24.8465 92.1663 32.7048 92.1663 48.4173 92.1663H52.584C68.2965 92.1663 76.1548 92.1663 81.034 87.283C85.9173 82.4038 85.9173 74.5455 85.9173 58.833V46.333" stroke="#BDBDBD" stroke-width="6.25"/>
<path d="M40.0839 8.83301H60.9172L63.6339 35.9872C63.8128 37.8195 63.6064 39.6691 63.0278 41.4169C62.4493 43.1647 61.5114 44.7721 60.2744 46.1357C59.0375 47.4994 57.5289 48.5891 55.8456 49.3348C54.1623 50.0806 52.3416 50.4658 50.5005 50.4658C48.6594 50.4658 46.8387 50.0806 45.1555 49.3348C43.4722 48.5891 41.9636 47.4994 40.7266 46.1357C39.4897 44.7721 38.5518 43.1647 37.9732 41.4169C37.3946 39.6691 37.1882 37.8195 37.3672 35.9872L40.0839 8.83301Z" stroke="#BDBDBD" stroke-width="6.25"/>
<path d="M14.3757 22.7955C15.1174 19.0872 15.4882 17.233 16.2424 15.7288C17.0282 14.1623 18.1347 12.7786 19.4899 11.6674C20.8452 10.5562 22.4189 9.74241 24.1091 9.27884C25.7341 8.83301 27.6257 8.83301 31.4091 8.83301H40.0841L37.0632 39.0205C36.9038 40.7481 36.3935 42.425 35.5635 43.9486C34.7335 45.4721 33.6012 46.8102 32.2361 47.881C30.871 48.9518 29.3017 49.7327 27.6243 50.1759C25.9469 50.6191 24.1967 50.7153 22.4808 50.4586C20.765 50.2019 19.1195 49.5978 17.6453 48.6831C16.171 47.7684 14.899 46.5624 13.9069 45.1391C12.9149 43.7157 12.2239 42.1048 11.876 40.4051C11.5282 38.7053 11.531 36.9525 11.8841 35.2538L14.3757 22.7955ZM86.6257 22.7955C85.8841 19.0872 85.5132 17.233 84.7591 15.7288C83.9733 14.1623 82.8668 12.7786 81.5116 11.6674C80.1563 10.5562 78.5825 9.74241 76.8924 9.27884C75.2674 8.83301 73.3757 8.83301 69.5924 8.83301H60.9174L63.9382 39.0205C64.0977 40.7481 64.608 42.425 65.438 43.9486C66.268 45.4721 67.4003 46.8102 68.7654 47.881C70.1305 48.9518 71.6998 49.7327 73.3772 50.1759C75.0546 50.6191 76.8048 50.7153 78.5206 50.4586C80.2365 50.2019 81.8819 49.5978 83.3562 48.6831C84.8305 47.7684 86.1025 46.5624 87.0945 45.1391C88.0866 43.7157 88.7776 42.1048 89.1255 40.4051C89.4733 38.7053 89.4705 36.9525 89.1174 35.2538L86.6257 22.7955Z" stroke="#BDBDBD" stroke-width="6.25"/>
<path d="M40.084 90.0827V77.5827C40.084 73.6868 40.084 71.741 40.9215 70.291C41.47 69.341 42.2589 68.552 43.209 68.0035C44.659 67.166 46.6048 67.166 50.5007 67.166C54.3965 67.166 56.3423 67.166 57.7923 68.0035C58.7424 68.552 59.5313 69.341 60.0798 70.291C60.9173 71.741 60.9173 73.6868 60.9173 77.5827V90.0827" stroke="#BDBDBD" stroke-width="6.25" stroke-linecap="round"/>
<path d="M7.10485 6.68544C5.27427 8.51602 5.27427 11.484 7.10486 13.3146L87.5382 93.748C89.3688 95.5785 92.3368 95.5785 94.1674 93.748C95.998 91.9174 95.998 88.9494 94.1674 87.1188L13.734 6.68544C11.9034 4.85485 8.93544 4.85485 7.10485 6.68544Z" fill="#BDBDBD" stroke="white" stroke-width="3.125"/>
</svg>
