<svg width="18" height="16" viewBox="0 0 18 16" fill="none" xmlns="http://www.w3.org/2000/svg">
<path d="M8.99992 0.125C9.49914 0.125 9.95969 0.388672 10.2128 0.821094L17.8066 13.7586C18.0632 14.1945 18.0632 14.7324 17.8136 15.1684C17.564 15.6043 17.0964 15.875 16.5937 15.875H1.40617C0.903439 15.875 0.435861 15.6043 0.186251 15.1684C-0.0633582 14.7324 -0.0598425 14.191 0.193282 13.7586L7.78703 0.821094C8.04016 0.388672 8.5007 0.125 8.99992 0.125ZM8.99992 4.625C8.53234 4.625 8.15617 5.00117 8.15617 5.46875V9.40625C8.15617 9.87383 8.53234 10.25 8.99992 10.25C9.4675 10.25 9.84367 9.87383 9.84367 9.40625V5.46875C9.84367 5.00117 9.4675 4.625 8.99992 4.625ZM10.1249 12.5C10.1249 12.2016 10.0064 11.9155 9.79542 11.7045C9.58444 11.4935 9.29829 11.375 8.99992 11.375C8.70155 11.375 8.41541 11.4935 8.20443 11.7045C7.99345 11.9155 7.87492 12.2016 7.87492 12.5C7.87492 12.7984 7.99345 13.0845 8.20443 13.2955C8.41541 13.5065 8.70155 13.625 8.99992 13.625C9.29829 13.625 9.58444 13.5065 9.79542 13.2955C10.0064 13.0845 10.1249 12.7984 10.1249 12.5Z" fill="#EB5757"/>
</svg>
