<svg width="40" height="40" viewBox="0 0 40 40" fill="none" xmlns="http://www.w3.org/2000/svg">
<path d="M32.733 11.4682L32.4991 11.2473C27.2421 6.15275 20.3965 6.72472 16.7827 7.51957C15.5287 7.78194 14.3018 8.16295 13.1182 8.6576C12.9674 8.72516 12.8383 8.83416 12.7456 8.97223C12.6529 9.1103 12.6003 9.27191 12.5938 9.4387C12.5873 9.60549 12.6272 9.77078 12.7088 9.9158C12.7905 10.0608 12.9107 10.1798 13.0559 10.2591C13.6192 10.5688 13.9291 10.9139 13.9739 11.2847C14.0538 11.9474 13.4067 12.7738 13.0442 13.1269C11.7318 14.0716 10.5165 15.1473 9.41671 16.3378C9.36991 16.1781 9.31535 16.0203 9.25882 15.8664C9.84943 15.5173 10.3211 14.8901 10.6233 14.042C10.9254 13.2058 11.2606 11.411 10.3757 10.6141C10.1854 10.4435 9.9474 10.3369 9.69462 10.309C9.44184 10.2811 9.18673 10.3333 8.96451 10.4583C8.33261 10.785 7.78264 11.2531 7.35642 11.8271C6.76386 11.5175 5.72688 11.1447 4.69184 11.5668C3.7348 11.9533 3.6081 12.6871 3.59837 12.9829C3.56912 13.9296 4.45404 14.7895 5.29025 15.188C5.85573 15.452 6.48398 15.5471 7.10107 15.4621C7.56567 16.206 7.85448 17.0483 7.94506 17.9236C7.94747 17.985 7.95729 18.046 7.9743 18.105C7.52939 18.7144 7.13 19.3566 6.77945 20.0261C6.48036 19.5207 6.0494 19.1085 5.53391 18.8348C5.07301 18.6026 4.55767 18.5039 4.0448 18.5495C3.53194 18.5951 3.04151 18.7833 2.62768 19.0932C1.52636 19.8998 0.639489 21.6946 1.14627 22.7991C1.22815 22.9786 1.69596 23.8543 2.95123 23.5348C4.30396 23.1995 5.1012 22.0437 5.47348 21.3357C5.71167 21.9866 5.82609 22.6772 5.81071 23.3711C5.81326 23.4301 5.82043 23.4888 5.83214 23.5467C5.77075 24.5097 5.84956 25.4766 6.06604 26.4164C6.51236 28.4429 7.73031 30.2097 9.45569 31.3334L9.48298 31.3492C11.0618 32.1913 12.6602 32.4418 14.2293 32.0967C15.424 31.819 16.5315 31.2442 17.4513 30.4241C18.6678 31.3441 20.0257 32.055 21.4705 32.5286C21.4842 32.5326 22.8915 33.0079 25.3689 32.9862L25.441 32.9941C25.4644 32.9961 25.4878 32.998 25.5112 32.998L25.5463 33C26.3126 32.9896 27.0759 32.9017 27.8249 32.7377C33.1774 31.5602 37.0368 26.5761 36.9997 20.884C36.9744 17.32 35.341 13.7127 32.733 11.4682ZM6.98799 13.4247C6.96363 13.5687 6.9519 13.7145 6.95292 13.8606L6.95097 14.0065L6.80673 14.0164C6.75605 14.0184 6.70732 14.0203 6.65859 14.0203C6.40109 14.024 6.14604 13.9694 5.91204 13.8606C5.58748 13.7112 5.3092 13.4753 5.10704 13.1782L5.02322 13.0342L5.16941 12.9593C5.19136 12.9457 5.21494 12.9351 5.23957 12.9277C5.84384 12.6812 6.54943 13.0303 6.91785 13.261L7.00751 13.3182L6.98799 13.4247ZM4.38002 20.2351C4.37611 20.2489 3.82447 21.7617 2.66081 22.0931L2.42106 22.1621L2.46394 21.9136C2.6119 21.2699 2.9696 20.6954 3.47946 20.2825C3.64056 20.1632 3.82445 20.0793 4.01939 20.0359C4.08861 20.02 4.15904 20.0101 4.22992 20.0063L4.44628 19.9945L4.38002 20.2351ZM8.14779 13.4503C8.34162 12.8585 8.72507 12.3491 9.23738 12.0027L9.47127 11.833L9.48493 12.123C9.50447 12.7797 9.35466 13.4302 9.05027 14.0105C8.9229 14.273 8.71781 14.4888 8.46356 14.6278L8.32907 14.6929L8.26083 14.5588C8.07982 14.219 8.03917 13.8204 8.14779 13.4503ZM18.3167 26.7753C18.13 27.3072 17.8558 27.8033 17.5059 28.2428L17.3909 28.3946L17.2661 28.2487C16.5457 27.4481 16.0857 26.4429 15.9484 25.3691C15.9465 25.3592 15.8705 24.5486 16.2993 24.0674C16.4714 23.873 16.6977 23.7361 16.9484 23.6749C17.3519 23.5861 17.7456 23.7676 18.1179 24.2173C18.1959 24.3356 18.7689 25.2862 18.3167 26.7753ZM27.4506 30.9941C26.8343 31.1296 26.2062 31.2029 25.5756 31.2131L25.4976 31.2052C25.4703 31.2032 25.4391 31.2012 25.4098 31.2012H25.4001C23.2579 31.2229 22.0358 30.8383 22.0241 30.8344C20.8266 30.4381 19.6956 29.8602 18.6695 29.1204C19.1201 28.5473 19.4702 27.9002 19.7045 27.2073C20.4082 24.8957 19.3362 23.4086 19.2952 23.3553L19.264 23.31C18.2738 22.0931 17.194 22.1167 16.6404 22.239C16.0913 22.3647 15.5946 22.6605 15.2194 23.0851C14.354 24.0614 14.4885 25.3888 14.508 25.5367C14.6715 26.8988 15.2467 28.1766 16.1551 29.1954C15.49 29.7605 14.7016 30.1573 13.855 30.3531C12.707 30.6056 11.5179 30.4123 10.329 29.7831C9.03732 28.8994 8.127 27.5509 7.7833 26.0121C7.42497 24.4846 7.52888 22.8835 8.08154 21.4166C8.13805 21.2726 9.52392 17.8565 14.1182 14.545C14.1454 14.5249 14.1714 14.5031 14.1961 14.4799C14.3755 14.3162 15.9348 12.837 15.7243 11.0717C15.6692 10.6046 15.4923 10.1608 15.2117 9.78577C15.8393 9.58459 16.4923 9.40906 17.1589 9.26311C21.1528 8.38543 26.8464 8.23948 31.2847 12.5391L31.5381 12.7837L31.5557 12.7995C31.5654 12.8054 31.5732 12.8133 31.5771 12.8152C32.7137 13.8082 33.6218 15.0408 34.2377 16.4266C34.8782 17.8291 35.2177 19.3529 35.2338 20.8978C35.2669 25.7478 31.9942 29.9942 27.4506 30.9941Z" fill="#EF6079"/>
<path d="M30.5616 16.6494C30.2692 15.8013 29.7624 15.5508 29.3881 15.4897C29.0763 15.4384 28.4642 15.47 27.8814 16.2392C27.696 16.489 27.5421 16.7614 27.4234 17.0498C26.9208 16.6314 26.3245 16.3442 25.6866 16.2135C25.4493 16.162 25.2031 16.1716 24.9704 16.2416C24.7378 16.3115 24.5263 16.4396 24.3553 16.6139C23.946 17.0636 23.8563 17.8269 24.1214 18.6079C24.3358 19.245 25.1058 20.7716 27.6183 21.3435C27.6029 21.8472 27.5416 22.3483 27.435 22.8405C27.4085 22.9707 27.4109 23.1052 27.4419 23.2343C27.4729 23.3635 27.5318 23.4841 27.6144 23.5874C27.697 23.6908 27.8011 23.7743 27.9194 23.8321C28.0377 23.8898 28.1672 23.9203 28.2986 23.9213C28.3609 23.9211 28.423 23.9138 28.4837 23.8997C28.6495 23.8633 28.8014 23.7794 28.9213 23.6581C29.0412 23.5367 29.1241 23.383 29.1601 23.2153C29.356 22.3318 29.4204 21.4237 29.3511 20.5211C29.8871 20.0536 31.2457 18.6257 30.5616 16.6494ZM28.9535 17.2411L29.1465 16.9275L29.2361 17.2845C29.3008 17.5698 29.2998 17.8664 29.2332 18.1512C29.1666 18.4361 29.0362 18.7017 28.8521 18.9275L28.6611 19.1819L28.5773 18.8762C28.4428 18.3851 28.7157 17.6257 28.9535 17.2411ZM25.4313 17.8742L25.3962 17.6277L25.632 17.6987C26.504 18.0402 27.2162 18.7024 27.6261 19.5527L27.7879 19.888L27.437 19.7716C26.3961 19.4264 25.8952 18.8821 25.6574 18.4856V18.4837C25.5431 18.2976 25.4663 18.0905 25.4313 17.8742Z" fill="#EF6079"/>
</svg>
