<svg width="30" height="30" viewBox="0 0 30 30" fill="none" xmlns="http://www.w3.org/2000/svg">
<path d="M13.4 18.6553H11.4558L12.6718 11.1364H14.6159L13.4 18.6553Z" fill="#00579F"/>
<path d="M20.4477 11.3201C20.0642 11.168 19.456 11 18.7039 11C16.784 11 15.432 12.0238 15.4237 13.4875C15.4078 14.5675 16.3917 15.1673 17.1276 15.5274C17.8798 15.8954 18.1355 16.1355 18.1355 16.4635C18.1278 16.9672 17.5277 17.1994 16.9679 17.1994C16.1917 17.1994 15.7758 17.0797 15.1438 16.7994L14.8878 16.6793L14.6157 18.3672C15.0717 18.5749 15.9118 18.7592 16.784 18.7673C18.824 18.7673 20.152 17.7594 20.1678 16.1995C20.1755 15.3436 19.656 14.6877 18.5359 14.1518C17.8559 13.8078 17.4394 13.5758 17.4394 13.2238C17.4474 12.9038 17.7917 12.576 18.5592 12.576C19.1913 12.56 19.6557 12.7119 20.0075 12.8639L20.1833 12.9437L20.4477 11.3201Z" fill="#00579F"/>
<path d="M23.0316 15.9916C23.1917 15.5597 23.8078 13.8879 23.8078 13.8879C23.7998 13.9039 23.9676 13.4479 24.0636 13.168L24.1995 13.8159C24.1995 13.8159 24.5677 15.6157 24.6476 15.9916C24.3438 15.9916 23.4156 15.9916 23.0316 15.9916ZM25.4315 11.1364H23.9277C23.4639 11.1364 23.1116 11.2722 22.9115 11.7602L20.0237 18.6552H22.0636C22.0636 18.6552 22.3995 17.7272 22.4717 17.5273C22.6955 17.5273 24.6799 17.5273 24.9678 17.5273C25.0236 17.7913 25.1998 18.6552 25.1998 18.6552H26.9999L25.4315 11.1364Z" fill="#00579F"/>
<path d="M9.83221 11.1364L7.92823 16.2636L7.72017 15.2237C7.36817 14.0239 6.2642 12.7202 5.03223 12.072L6.77621 18.6474H8.83211L11.888 11.1364H9.83221Z" fill="#00579F"/>
<path d="M6.15998 11.1364H3.032L3 11.2883C5.44002 11.9122 7.056 13.4163 7.71993 15.224L7.03995 11.7684C6.928 11.2882 6.58396 11.1522 6.15998 11.1364Z" fill="#FAA61A"/>
</svg>
