<svg width="200" height="68" viewBox="0 0 200 68" fill="none" xmlns="http://www.w3.org/2000/svg">
<path d="M41.1916 17.2453C40.3599 14.0285 38.8737 11.0177 36.8259 8.4012C34.8061 5.85788 32.1883 3.85391 29.2059 2.56796C26.1319 1.21349 22.0986 0.536255 17.1061 0.536255H1.54145C1.33901 0.536255 1.13854 0.576133 0.951511 0.653613C0.764479 0.731093 0.59454 0.844656 0.4514 0.987817C0.30826 1.13098 0.194722 1.30093 0.11727 1.48798C0.0398185 1.67502 -3.01267e-05 1.87549 1.70891e-08 2.07794V54.1655C-3.01267e-05 54.368 0.0398185 54.5685 0.11727 54.7555C0.194722 54.9426 0.30826 55.1125 0.4514 55.2557C0.59454 55.3988 0.764479 55.5124 0.951511 55.5899C1.13854 55.6674 1.33901 55.7072 1.54145 55.7072H17.1061C20.1413 55.7072 23.5283 55.2054 27.2671 54.2018C30.0012 53.4744 32.5602 52.0131 34.9441 49.818C37.3849 47.5397 39.2932 44.7511 40.5331 41.651C41.8748 38.4022 42.5459 33.8298 42.5465 27.9338C42.5665 24.3269 42.111 20.7331 41.1916 17.2453ZM21.2732 34.5595C20 34.5596 18.7553 34.182 17.6965 33.4747C16.6378 32.7673 15.8126 31.7619 15.3253 30.5855C14.838 29.4092 14.7105 28.1148 14.9589 26.8659C15.2073 25.6171 15.8204 24.47 16.7207 23.5696C17.6211 22.6693 18.7682 22.0561 20.017 21.8077C21.2658 21.5592 22.5602 21.6867 23.7366 22.174C24.913 22.6612 25.9184 23.4864 26.6258 24.5451C27.3332 25.6038 27.7108 26.8485 27.7108 28.1217C27.7107 29.8291 27.0324 31.4664 25.8252 32.6737C24.6179 33.881 22.9806 34.5593 21.2732 34.5595Z" fill="#80AD18"/>
<path d="M76.4825 0.536255H60.9177C55.9256 0.536255 51.8927 1.21364 48.8188 2.56842C45.8364 3.85433 43.2186 5.85831 41.1987 8.40166C41.0576 8.58 40.9401 8.776 40.8042 8.95847C42.3101 11.2913 43.4376 13.8476 44.1451 16.5326C45.1246 20.2491 45.6099 24.0785 45.5885 27.9218C45.5885 34.2047 44.8735 39.0771 43.4434 42.539C42.7493 44.2337 41.8777 45.8502 40.8432 47.3614C41.524 48.2369 42.272 49.058 43.0803 49.8173C45.4641 52.0129 48.0232 53.4742 50.7575 54.2011C54.4964 55.2049 57.8834 55.7066 60.9186 55.7063H76.4835C76.8923 55.7063 77.2844 55.5439 77.5734 55.2548C77.8625 54.9658 78.0249 54.5737 78.0249 54.1649V2.07794C78.0249 1.87541 77.9851 1.67487 77.9076 1.48777C77.83 1.30066 77.7164 1.13067 77.5732 0.987493C77.43 0.844319 77.2599 0.730775 77.0728 0.65335C76.8856 0.575924 76.6851 0.536135 76.4825 0.536255ZM58.538 34.5595C57.2648 34.5595 56.0201 34.1819 54.9614 33.4745C53.9028 32.767 53.0777 31.7616 52.5904 30.5852C52.1032 29.4089 51.9758 28.1144 52.2242 26.8657C52.4726 25.6169 53.0858 24.4698 53.9861 23.5695C54.8865 22.6691 56.0336 22.056 57.2824 21.8076C58.5312 21.5592 59.8256 21.6868 61.0019 22.174C62.1783 22.6613 63.1837 23.4864 63.8911 24.5451C64.5985 25.6038 64.976 26.8485 64.976 28.1217C64.9761 28.9672 64.8096 29.8044 64.486 30.5855C64.1625 31.3666 63.6883 32.0763 63.0904 32.6741C62.4926 33.2719 61.7829 33.7461 61.0018 34.0696C60.2207 34.3931 59.3835 34.5596 58.538 34.5595Z" fill="#FE7D12"/>
<path d="M87.5747 55.6489V0.536255H103.289C107.399 0.536255 111.008 1.05 114.117 2.07748C117.226 3.10496 119.632 4.79675 121.335 7.15284C123.038 9.50924 123.89 12.6919 123.892 16.7009C123.892 20.5614 123.039 23.744 121.335 26.2489C119.631 28.7537 117.25 30.6209 114.192 31.8505C111.134 33.0792 107.6 33.6933 103.591 33.6926H94.4931V55.6473L87.5747 55.6489ZM94.4931 28.0556H102.687C107.499 28.0556 111.083 27.1534 113.439 25.3489C115.795 23.5444 116.973 20.6622 116.973 16.7022C116.973 12.6933 115.758 9.93645 113.327 8.43173C110.896 6.927 107.249 6.17501 102.387 6.17578H94.4931V28.0556Z" fill="#315B6D"/>
<path d="M165.58 54.1415L161.237 36.5809C161.241 36.4352 161.249 36.2906 161.249 36.1448C161.256 31.5767 159.642 27.1541 156.694 23.6647C153.746 20.1753 149.655 17.8456 145.149 17.0905C140.644 16.3353 136.017 17.2038 132.092 19.5412C128.167 21.8786 125.199 25.5331 123.717 29.8541C122.235 34.1751 122.334 38.8819 123.998 43.1364C125.661 47.3909 128.781 50.9169 132.801 53.0864C136.821 55.256 141.481 55.9282 145.95 54.9835C150.419 54.0387 154.408 51.5383 157.207 47.9275L159.138 55.7359L165.58 54.1415ZM141.993 48.7625C139.497 48.7625 137.058 48.0224 134.983 46.6359C132.907 45.2494 131.29 43.2787 130.335 40.973C129.38 38.6673 129.13 36.1302 129.617 33.6825C130.104 31.2347 131.306 28.9864 133.07 27.2217C134.835 25.457 137.083 24.2552 139.531 23.7683C141.979 23.2814 144.516 23.5313 146.822 24.4864C149.127 25.4414 151.098 27.0587 152.485 29.1338C153.871 31.2089 154.611 33.6485 154.611 36.1442C154.607 39.4896 153.277 42.6969 150.911 45.0625C148.546 47.4281 145.338 48.7587 141.993 48.7625Z" fill="#315B6D"/>
<path d="M178.271 59.7982C177.418 62.3041 174.637 67.1779 173.993 67.5656H181.012C181.075 67.4694 181.141 67.3774 181.203 67.2794C182.618 65.0211 183.778 62.6129 184.662 60.0989L200 15.8122H193.308L185.941 38.4428C185.439 40.2977 184.901 42.2151 184.324 44.1948C183.748 46.1744 183.184 48.1168 182.632 50.0218H182.256C181.554 48.1172 180.865 46.1623 180.189 44.1571C179.513 42.1519 178.849 40.2469 178.196 38.4421L169.926 15.8115H162.782L179.173 56.7137L178.271 59.7982Z" fill="#315B6D"/>
</svg>